<svg xmlns="http://www.w3.org/2000/svg" width="26.325" height="22.564" viewBox="0 0 26.325 22.564">
  <path id="bag" d="M28.948,13.21H23.487L20.424,6.075a.766.766,0,0,0-1.015-.4.79.79,0,0,0-.4,1.033L21.8,13.21H12L14.794,6.7a.79.79,0,0,0-.4-1.033.766.766,0,0,0-1.015.4L10.316,13.21H4.855a1.11,1.11,0,0,0-1.088,1.35L6.643,27.3a1.114,1.114,0,0,0,1.088.866H26.072a1.114,1.114,0,0,0,1.088-.866l2.876-12.742A1.11,1.11,0,0,0,28.948,13.21ZM10.462,15.616a.758.758,0,0,1-.308-.066.79.79,0,0,1-.4-1.033l.579-1.349h1.683l-.849,1.977A.771.771,0,0,1,10.462,15.616Zm2.584,8.368a.771.771,0,1,1-1.542,0V18.231a.771.771,0,1,1,1.542,0Zm4.627,0a.771.771,0,1,1-1.543,0V18.231a.771.771,0,1,1,1.543,0Zm4.627,0a.771.771,0,1,1-1.542,0V18.231a.771.771,0,1,1,1.542,0Zm1.35-8.434a.758.758,0,0,1-.308.066.771.771,0,0,1-.707-.471l-.849-1.977h1.683l.579,1.35A.79.79,0,0,1,23.65,15.551Z" transform="translate(-3.739 -5.604)" fill="#fff"/>
</svg>
