<svg id="bird" xmlns="http://www.w3.org/2000/svg" width="100.812" height="86.237" viewBox="0 0 100.812 86.237">
  <path id="Caminho_105" data-name="Caminho 105" d="M7.5,167.173l9.919,7.847,1.13-12.492Z" transform="translate(-6.023 -137.753)" fill="#ffc850"/>
  <path id="Caminho_106" data-name="Caminho 106" d="M120.314,88.232c-12.939-1.211-22.278-17.177-27.868-26.8C88.709,55,83.7,51.031,76.284,49.591l4.653-6.02S52,43.047,47.472,73.41c-3.033,26.7,18.74,43.974,43.988,43.974,22.1,0,41.037-14.134,45.773-32.981A26.842,26.842,0,0,1,120.314,88.232Z" transform="translate(-37.897 -42.094)" fill="#00c3ff"/>
  <g id="Grupo_78" data-name="Grupo 78" transform="translate(9.291 1.476)">
    <path id="Caminho_107" data-name="Caminho 107" d="M103.692,115.029c-25.248,0-47.021-17.275-43.988-43.974C62.243,54.036,72.449,46.724,80.93,43.581l.007-.009S52,43.048,47.472,73.411c-3.033,26.7,18.74,43.974,43.988,43.974a50.89,50.89,0,0,0,15.791-2.5C106.074,114.969,104.89,115.029,103.692,115.029Z" transform="translate(-47.189 -43.571)" fill="#00aaf0"/>
    <path id="Caminho_108" data-name="Caminho 108" d="M219.125,151.164a8.715,8.715,0,0,0-11.078-2.415l-.053.029c-22.267,12.124,3.622,55.17,41.3,16.5C249.3,165.278,235.084,171.967,219.125,151.164Z" transform="translate(-169.712 -127.385)" fill="#00aaf0"/>
  </g>
  <path id="Caminho_109" data-name="Caminho 109" d="M239.955,217.555c-11.056,10.386-38.372,16.374-40.055-5.621-1.916,15.763,20.2,34.907,49.411,4.944,0,0,.012-.014.008-.012A16.773,16.773,0,0,1,239.955,217.555Z" transform="translate(-160.447 -177.501)" fill="#0096dc"/>
  <path id="Caminho_110" data-name="Caminho 110" d="M100.413,150.816h0a4.735,4.735,0,0,1-4.735-4.735V144.5a4.735,4.735,0,0,1,4.735-4.735h0a4.735,4.735,0,0,1,4.735,4.735v1.578A4.735,4.735,0,0,1,100.413,150.816Z" transform="translate(-76.839 -119.45)" fill="#4b3f4e"/>
  <path id="Caminho_111" data-name="Caminho 111" d="M119.726,139.767v5.524a2.368,2.368,0,0,0,4.735,0V144.5A4.735,4.735,0,0,0,119.726,139.767Z" transform="translate(-96.152 -119.446)" fill="#5d5360"/>
  <circle id="Elipse_14" data-name="Elipse 14" cx="1.674" cy="1.674" r="1.674" transform="translate(21.901 21.803)" fill="#fff"/>
  <path id="Caminho_112" data-name="Caminho 112" d="M99.125,137a1.477,1.477,0,0,0-1.477,1.477v1.578a3.258,3.258,0,0,1-6.517,0v-1.578a3.262,3.262,0,0,1,3.258-3.258,1.477,1.477,0,0,0,0-2.953,6.219,6.219,0,0,0-6.212,6.212v1.578a6.212,6.212,0,0,0,12.424,0v-1.578A1.477,1.477,0,0,0,99.125,137Z" transform="translate(-70.816 -113.423)"/>
  <path id="Caminho_113" data-name="Caminho 113" d="M100.137,77.17a1.481,1.481,0,0,0-1.717.081A21.727,21.727,0,0,1,85.143,81.02q2.4-2.087,4.793-4.535a1.465,1.465,0,0,0,.145-1.879,1.48,1.48,0,0,0-1.831-.477c-.037.018-3.791,1.729-9.607.343C68.569,72.069,60.661,62.361,55.8,54.64a28.132,28.132,0,0,0-14.92-11.888l3.33-4.312a1.47,1.47,0,0,0-1.144-2.367A38.835,38.835,0,0,0,27.375,39.75a32.606,32.606,0,0,0-11.82,9.259,35.05,35.05,0,0,0-6.05,11.868l-8.6,3.6a1.467,1.467,0,0,0-.344,2.509L7.814,72.7a37.494,37.494,0,0,0,9.653,25.267c7.426,8.278,18.4,13.471,30.68,14.654l-3.389,6.748H36.2a1.47,1.47,0,1,0,0,2.941H58.3a1.47,1.47,0,1,0,0-2.941H54.374l3.342-6.655a51.5,51.5,0,0,0,26.118-9.547,43.73,43.73,0,0,0,16.934-24.4A1.468,1.468,0,0,0,100.137,77.17ZM8.6,64.443q-.281,1.345-.491,2.745c0,.017,0,.034-.007.051-.069.607-.123,1.209-.167,1.81L4.353,66.223Zm42.467,54.925H48.06l3.282-6.536c.737.029,1.477.047,2.221.047.257,0,.514,0,.771-.008Zm2.491-9.43c-13.6,0-25.949-5.078-33.893-13.932-6.88-7.668-9.864-17.493-8.631-28.412A34.875,34.875,0,0,1,17.83,50.886a29.649,29.649,0,0,1,10.7-8.429,37.222,37.222,0,0,1,11.339-3.227l-2.657,3.44A1.468,1.468,0,0,0,38.04,45,25,25,0,0,1,53.3,56.2,59.91,59.91,0,0,0,66.4,71.473,30.048,30.048,0,0,0,77.955,77.33a21.753,21.753,0,0,0,6.245.588c-5.54,5.007-11.039,8.473-16.393,10.328-5.427,1.879-10.674,2.029-15.174.432a17.8,17.8,0,0,1-6.707-4.25,19.963,19.963,0,0,0,8.007,2.181q1.026.077,2.092.077a33.472,33.472,0,0,0,7.922-.989,1.471,1.471,0,1,0-.708-2.855c-6.829,1.679-13.267,1-17.221-1.814-2.954-2.1-4.649-5.413-5.04-9.842v-.006a13.871,13.871,0,0,1,7.329-10.877,1.472,1.472,0,1,0-1.463-2.555,16.876,16.876,0,0,0-8.816,16.467A20.376,20.376,0,0,0,51.641,91.449c5.141,1.824,11.066,1.677,17.136-.425a47.08,47.08,0,0,0,13.181-7.39,1.5,1.5,0,0,0,.238.056,25.346,25.346,0,0,0,14.631-2.115C90.836,98.208,73.251,109.939,53.563,109.939Z" transform="translate(0 -36.072)"/>
  <path id="Caminho_114" data-name="Caminho 114" d="M347.128,260.027a1.473,1.473,0,0,0,.679-.166,13.463,13.463,0,0,0,2.671-1.76,1.477,1.477,0,0,0-1.95-2.218,10.715,10.715,0,0,1-2.082,1.357,1.477,1.477,0,0,0,.682,2.788Z" transform="translate(-277.592 -212.501)"/>
</svg>
