<svg width="28" height="28" viewBox="0 0 28 28" fill="none" xmlns="http://www.w3.org/2000/svg">
<g clip-path="url(#clip0)">
<path d="M26.375 21.3333C26.375 21.9411 26.1379 22.524 25.716 22.9538C25.294 23.3836 24.7217 23.625 24.125 23.625H3.875C3.27826 23.625 2.70597 23.3836 2.28401 22.9538C1.86205 22.524 1.625 21.9411 1.625 21.3333V8.72917C1.625 8.12138 1.86205 7.53848 2.28401 7.10871C2.70597 6.67894 3.27826 6.4375 3.875 6.4375H8.375L10.625 3H17.375L19.625 6.4375H24.125C24.7217 6.4375 25.294 6.67894 25.716 7.10871C26.1379 7.53848 26.375 8.12138 26.375 8.72917V21.3333Z" stroke="#41414C" stroke-width="1.5" stroke-linecap="round" stroke-linejoin="round"/>
<path d="M14 18.125C16.2782 18.125 18.125 16.2782 18.125 14C18.125 11.7218 16.2782 9.875 14 9.875C11.7218 9.875 9.875 11.7218 9.875 14C9.875 16.2782 11.7218 18.125 14 18.125Z" stroke="#41414C" stroke-width="1.5" stroke-linecap="round" stroke-linejoin="round"/>
</g>
<defs>
<clipPath id="clip0">
<rect width="27.5" height="27.5" fill="white" transform="translate(0.25 0.25)"/>
</clipPath>
</defs>
</svg>
