<svg xmlns="http://www.w3.org/2000/svg" width="28.019" height="29.123" viewBox="0 0 28.019 29.123">
  <g id="carrinho" transform="translate(-9.698 0)">
    <g id="Grupo_77" data-name="Grupo 77" transform="translate(9.698 0)">
      <g id="Grupo_76" data-name="Grupo 76" transform="translate(0 0)">
        <path id="Caminho_46" data-name="Caminho 46" d="M133.621,382.711a3.677,3.677,0,1,0,3.677,3.677A3.681,3.681,0,0,0,133.621,382.711Zm0,5.148a1.471,1.471,0,1,1,1.471-1.471A1.472,1.472,0,0,1,133.621,387.859Z" transform="translate(-123.104 -360.942)" fill="#707070"/>
        <path id="Caminho_47" data-name="Caminho 47" d="M324.972,382.711a3.677,3.677,0,1,0,3.677,3.677A3.681,3.681,0,0,0,324.972,382.711Zm0,5.148a1.471,1.471,0,1,1,1.471-1.471A1.472,1.472,0,0,1,324.972,387.859Z" transform="translate(-303.571 -360.942)" fill="#707070"/>
        <path id="Caminho_48" data-name="Caminho 48" d="M37.478,7.182a1.1,1.1,0,0,0-.863-.417H17.3L16.3,1.7a1.1,1.1,0,0,0-.883-.871L11,.018a1.1,1.1,0,1,0-.4,2.17l3.675.674,3.237,16.362a1.1,1.1,0,0,0,1.082.889H34.041a1.1,1.1,0,0,0,1.075-.855L37.689,8.117A1.1,1.1,0,0,0,37.478,7.182ZM33.163,17.908H19.5L17.735,8.972H35.227Z" transform="translate(-9.698 0)" fill="#707070"/>
      </g>
    </g>
  </g>
</svg>
