<svg id="cat" xmlns="http://www.w3.org/2000/svg" width="86.31" height="92.388" viewBox="0 0 86.31 92.388">
  <path id="Caminho_87" data-name="Caminho 87" d="M51.659,8.159a2.91,2.91,0,0,0-4.744,2.258V49.4L78.92,30.491Z" transform="translate(-41.193 -6.145)" fill="#ffc850"/>
  <path id="Caminho_88" data-name="Caminho 88" d="M46.915,66.177,64.372,51.993,46.915,32.33Z" transform="translate(-41.193 -26.481)" fill="#ebaf4b"/>
  <path id="Caminho_89" data-name="Caminho 89" d="M315.431,8.159a2.91,2.91,0,0,1,4.744,2.258V49.4L288.17,30.491Z" transform="translate(-239.587 -6.145)" fill="#ffc850"/>
  <path id="Caminho_90" data-name="Caminho 90" d="M386.045,66.177,368.588,51.993,386.045,32.33Z" transform="translate(-305.457 -26.481)" fill="#ebaf4b"/>
  <ellipse id="Elipse_11" data-name="Elipse 11" cx="40.343" cy="38.552" rx="40.343" ry="38.552" transform="translate(2.812 13.926)" fill="#ffdc64"/>
  <path id="Caminho_91" data-name="Caminho 91" d="M235.474,410.91v2.91a5.819,5.819,0,0,1-5.819,5.819h0a5.819,5.819,0,0,1-5.819-5.819v-2.91l5.819-2.91Z" transform="translate(-186.5 -334.427)" fill="#ff8087"/>
  <path id="Caminho_92" data-name="Caminho 92" d="M237.184,341.29H230.76a1.65,1.65,0,0,0-1.283,2.687l3.213,3.975a1.65,1.65,0,0,0,2.566,0l3.213-3.975A1.65,1.65,0,0,0,237.184,341.29Z" transform="translate(-190.817 -279.72)" fill="#5d5360"/>
  <path id="Caminho_93" data-name="Caminho 93" d="M81.748,154.777c-22.5,0-40.734-17.26-40.734-38.552,0-15.635,9.84-29.086,23.973-35.135C45.62,84.068,30.831,99.964,30.831,119.135c0,21.292,18.237,38.552,40.734,38.552a42.515,42.515,0,0,0,16.761-3.417A43.231,43.231,0,0,1,81.748,154.777Z" transform="translate(-28.019 -66.656)" fill="#ffc850"/>
  <path id="Caminho_94" data-name="Caminho 94" d="M140.467,260.257h0a5.107,5.107,0,0,1-5.092-5.092v-2.91a5.107,5.107,0,0,1,5.092-5.092h0a5.107,5.107,0,0,1,5.092,5.092v2.91A5.106,5.106,0,0,1,140.467,260.257Z" transform="translate(-113.872 -202.583)" fill="#4b3f4e"/>
  <path id="Caminho_95" data-name="Caminho 95" d="M160.227,247.164a5,5,0,0,0-.727.074v7.2a2.91,2.91,0,0,0,5.819,0v-2.182A5.107,5.107,0,0,0,160.227,247.164Z" transform="translate(-133.663 -202.579)" fill="#5d5360"/>
  <circle id="Elipse_12" data-name="Elipse 12" cx="2.182" cy="2.182" r="2.182" transform="translate(24.401 46.045)" fill="#fff"/>
  <path id="Caminho_96" data-name="Caminho 96" d="M325.429,260.257h0a5.107,5.107,0,0,1-5.092-5.092v-2.91a5.107,5.107,0,0,1,5.092-5.092h0a5.107,5.107,0,0,1,5.092,5.092v2.91A5.106,5.106,0,0,1,325.429,260.257Z" transform="translate(-265.714 -202.583)" fill="#4b3f4e"/>
  <path id="Caminho_97" data-name="Caminho 97" d="M345.189,247.164a5.005,5.005,0,0,0-.727.074v7.2a2.91,2.91,0,0,0,5.819,0v-2.182A5.107,5.107,0,0,0,345.189,247.164Z" transform="translate(-285.486 -202.579)" fill="#5d5360"/>
  <circle id="Elipse_13" data-name="Elipse 13" cx="2.182" cy="2.182" r="2.182" transform="translate(57.545 46.045)" fill="#fff"/>
  <path id="Caminho_98" data-name="Caminho 98" d="M235.1,348.014l-3.213-6.359a3.207,3.207,0,0,1-.135-.364h-.99a1.65,1.65,0,0,0-1.283,2.687l3.213,3.975a1.632,1.632,0,0,0,2.434.1C235.116,348.039,235.106,348.029,235.1,348.014Z" transform="translate(-190.8 -279.72)" fill="#4b3f4e"/>
  <path id="Caminho_99" data-name="Caminho 99" d="M223.835,410.91v2.91a5.785,5.785,0,0,0,.169,1.336,12.985,12.985,0,0,0,5.65-2.089,12.983,12.983,0,0,0,5.65,2.089,5.788,5.788,0,0,0,.169-1.336v-2.91L229.654,408Z" transform="translate(-186.499 -334.427)" fill="#e6646e"/>
  <path id="Caminho_100" data-name="Caminho 100" d="M140.773,249.022v-2.91a6.392,6.392,0,0,0-.622-2.765,1.357,1.357,0,0,0-2.451,1.165,3.7,3.7,0,0,1,.359,1.6v2.91a3.735,3.735,0,1,1-7.47,0v-2.91a3.739,3.739,0,0,1,3.735-3.735,1.357,1.357,0,1,0,0-2.714,6.456,6.456,0,0,0-6.448,6.448v2.91a6.448,6.448,0,1,0,12.9,0Z" transform="translate(-107.723 -196.441)"/>
  <path id="Caminho_101" data-name="Caminho 101" d="M325.735,249.022v-2.91a6.391,6.391,0,0,0-.622-2.765,1.357,1.357,0,1,0-2.451,1.165,3.7,3.7,0,0,1,.359,1.6v2.91a3.735,3.735,0,0,1-7.47,0v-2.91a3.739,3.739,0,0,1,3.735-3.735,1.357,1.357,0,0,0,0-2.714,6.456,6.456,0,0,0-6.448,6.448v2.91a6.448,6.448,0,0,0,12.9,0Z" transform="translate(-259.578 -196.441)"/>
  <path id="Caminho_102" data-name="Caminho 102" d="M202.762,404.568a7.349,7.349,0,0,1-9.061.61,5.58,5.58,0,0,0-6.253,0,7.349,7.349,0,0,1-9.061-.61,1.357,1.357,0,1,0-1.812,2.02,10.062,10.062,0,0,0,6.725,2.582l.1,0v1.555a7.176,7.176,0,0,0,14.352,0v-1.555l.1,0a10.063,10.063,0,0,0,6.725-2.582,1.357,1.357,0,0,0-1.812-2.02Zm-7.725,6.155a4.462,4.462,0,1,1-8.925,0v-1.952a10.022,10.022,0,0,0,2.867-1.352,2.652,2.652,0,0,1,.239-.143v1.993a1.357,1.357,0,0,0,2.714,0v-1.993a2.624,2.624,0,0,1,.239.143,10.023,10.023,0,0,0,2.867,1.352v1.952Z" transform="translate(-147.42 -331.33)"/>
  <path id="Caminho_103" data-name="Caminho 103" d="M225.487,342.661a3.007,3.007,0,0,0,4.676,0l3.213-3.975a3.007,3.007,0,0,0-2.338-4.9h-6.425a3.006,3.006,0,0,0-2.338,4.9Zm-1.139-5.991a.274.274,0,0,1,.265-.167h6.425a.293.293,0,0,1,.228.477l-3.213,3.974a.293.293,0,0,1-.456,0l-3.213-3.975A.274.274,0,0,1,224.348,336.67Z" transform="translate(-184.67 -273.578)"/>
  <path id="Caminho_104" data-name="Caminho 104" d="M100.6,65.059c-.74-.2-1.527-.379-2.347-.54a38.411,38.411,0,0,0-.982-26.536V4.262A4.223,4.223,0,0,0,94.86.419a4.172,4.172,0,0,0-4.483.54L72.926,15.23a43.912,43.912,0,0,0-28.968,0L26.507.959a4.171,4.171,0,0,0-4.483-.54,4.223,4.223,0,0,0-2.411,3.843V37.983a38.411,38.411,0,0,0-.982,26.536c-.82.161-1.608.34-2.347.54a1.353,1.353,0,1,0,.7,2.614c.806-.218,1.679-.41,2.6-.579a38.64,38.64,0,0,0,3.332,6.363c-1.394.581-2.748,1.2-4.014,1.867a1.358,1.358,0,0,0-.573,1.825,1.339,1.339,0,0,0,1.813.577c1.358-.711,2.835-1.376,4.362-1.994a40.892,40.892,0,0,0,4.475,5.025,43.141,43.141,0,0,0,58.938,0,40.87,40.87,0,0,0,4.475-5.025c1.527.618,3,1.284,4.362,1.994a1.339,1.339,0,0,0,1.813-.577,1.358,1.358,0,0,0-.573-1.825c-1.266-.663-2.62-1.285-4.014-1.867a38.64,38.64,0,0,0,3.332-6.363c.917.169,1.79.361,2.6.579a1.353,1.353,0,0,0,.7-2.614Zm-8.528-62a1.5,1.5,0,0,1,1.632-.2,1.517,1.517,0,0,1,.877,1.386L91.983,7.2A1.359,1.359,0,0,0,92.1,9.108,1.339,1.339,0,0,0,94,8.993l.587-.667V32.673a40.307,40.307,0,0,0-6.671-8.266,41.835,41.835,0,0,0-4.329-3.6l6.6-7.491a1.359,1.359,0,0,0-.114-1.911,1.339,1.339,0,0,0-1.9.114l-6.843,7.764A41.917,41.917,0,0,0,75.8,16.365Zm-68.894-.2a1.5,1.5,0,0,1,1.632.2l16.27,13.305a41.919,41.919,0,0,0-5.525,2.922L22.3,4.249A1.517,1.517,0,0,1,23.179,2.863ZM22.3,8.327l11,12.482a41.813,41.813,0,0,0-4.329,3.6A40.308,40.308,0,0,0,22.3,32.673ZM91.39,72.439a120.353,120.353,0,0,0-16.652-4.681,1.353,1.353,0,0,0-.514,2.657,122.1,122.1,0,0,1,15.513,4.3,40.211,40.211,0,0,1-62.59,0A122.328,122.328,0,0,1,42.66,70.415a1.353,1.353,0,0,0-.514-2.657,120.353,120.353,0,0,0-16.652,4.681,36.412,36.412,0,0,1-3.152-5.776A131.637,131.637,0,0,1,39.929,65.9,1.353,1.353,0,0,0,40.01,63.2a128.454,128.454,0,0,0-18.675.868A35.294,35.294,0,0,1,19.418,52.58c0-20.457,17.506-37.1,39.024-37.1s39.024,16.643,39.024,37.1a35.3,35.3,0,0,1-1.917,11.487A128.5,128.5,0,0,0,76.874,63.2a1.353,1.353,0,0,0,.081,2.705,131.65,131.65,0,0,1,17.588.759A36.409,36.409,0,0,1,91.39,72.439Z" transform="translate(-15.287 0)"/>
</svg>
