<svg id="dog" xmlns="http://www.w3.org/2000/svg" width="97.91" height="86.895" viewBox="0 0 97.91 86.895">
  <path id="Caminho_69" data-name="Caminho 69" d="M138.365,45.191h-15.3c-5.544,2.214-6.774-1.54-18.354-1.54S91.905,47.4,86.36,45.191h-15.3L69.026,83.884c1.275,15.208,10.643,23.486,18.036,26.5h35.306c7.393-3.016,16.761-11.294,18.036-26.5Z" transform="translate(-55.76 -40.67)" fill="#f5dcb4"/>
  <path id="Caminho_70" data-name="Caminho 70" d="M352.159,38.717c17.34,5.19,7.9,31.956,19.065,43.525a3.066,3.066,0,0,0,5.1-1.286,45.57,45.57,0,0,0,1.626-14.134c-.193-9.048,3.465-9.625,3.465-9.625s-4.62-21.56-18.48-21.56C358.319,35.637,352.159,38.717,352.159,38.717Z" transform="translate(-284.969 -34.196)" fill="#965a50"/>
  <path id="Caminho_71" data-name="Caminho 71" d="M149.206,201.749h0a5.406,5.406,0,0,1-5.39-5.39v-3.08a5.406,5.406,0,0,1,5.39-5.39h0a5.406,5.406,0,0,1,5.39,5.39v3.08A5.406,5.406,0,0,1,149.206,201.749Z" transform="translate(-116.331 -157.474)" fill="#4b3f4e"/>
  <path id="Caminho_72" data-name="Caminho 72" d="M168.625,187.888a5.281,5.281,0,0,0-.77.078v7.622a3.08,3.08,0,1,0,6.16,0v-2.31A5.406,5.406,0,0,0,168.625,187.888Z" transform="translate(-135.767 -157.462)" fill="#5d5360"/>
  <circle id="Elipse_8" data-name="Elipse 8" cx="2.309" cy="2.309" r="2.309" transform="translate(30.561 31.975)" fill="#fff"/>
  <path id="Caminho_73" data-name="Caminho 73" d="M317.483,201.749h0a5.406,5.406,0,0,1-5.39-5.39v-3.08a5.406,5.406,0,0,1,5.39-5.39h0a5.406,5.406,0,0,1,5.39,5.39v3.08A5.406,5.406,0,0,1,317.483,201.749Z" transform="translate(-252.448 -157.474)" fill="#4b3f4e"/>
  <path id="Caminho_74" data-name="Caminho 74" d="M336.9,187.888a5.279,5.279,0,0,0-.77.078v7.622a3.08,3.08,0,1,0,6.16,0v-2.31A5.406,5.406,0,0,0,336.9,187.888Z" transform="translate(-271.875 -157.462)" fill="#5d5360"/>
  <circle id="Elipse_9" data-name="Elipse 9" cx="2.309" cy="2.309" r="2.309" transform="translate(62.731 31.975)" fill="#fff"/>
  <path id="Caminho_75" data-name="Caminho 75" d="M371.224,93.811a3.066,3.066,0,0,0,5.1-1.286,37.834,37.834,0,0,0,1.32-6.772c-3.027-1.509-5.612-6.324-7.2-14.484-2.887-14.823-6.93-23.1-18.288-20.983C369.5,55.476,360.058,82.241,371.224,93.811Z" transform="translate(-284.968 -45.765)" fill="#824641"/>
  <path id="Caminho_76" data-name="Caminho 76" d="M87.186,116.859h7.3s-12.818-8.6-14.935-23.806c-4.119-29.585,3.722-38.437,10.5-40.7a8.606,8.606,0,0,1-3.574-.693h-15.4L69.026,90.357C70.309,105.565,79.742,113.843,87.186,116.859Z" transform="translate(-55.76 -47.143)" fill="#e7c9a5"/>
  <path id="Caminho_77" data-name="Caminho 77" d="M36.853,38.717c-17.34,5.19-7.9,31.956-19.065,43.525a3.066,3.066,0,0,1-5.1-1.286,45.57,45.57,0,0,1-1.626-14.134c.193-9.048-3.465-9.625-3.465-9.625s4.62-21.56,18.48-21.56C30.693,35.637,36.853,38.717,36.853,38.717Z" transform="translate(-6.134 -34.196)" fill="#965a50"/>
  <path id="Caminho_78" data-name="Caminho 78" d="M36.336,38.472c-1.563-.725-6.437-2.835-10.265-2.835C12.211,35.637,7.591,57.2,7.591,57.2s3.658.578,3.465,9.625c0,.121,0,.23,0,.349C19.917,33.551,33.535,37.291,36.336,38.472Z" transform="translate(-6.132 -34.196)" fill="#824641"/>
  <ellipse id="Elipse_10" data-name="Elipse 10" cx="16.941" cy="12.32" rx="16.941" ry="12.32" transform="translate(32.013 57.734)" fill="#bc8e78"/>
  <path id="Caminho_79" data-name="Caminho 79" d="M215.934,396.231v7.7a7.7,7.7,0,0,0,15.4,0v-7.7Z" transform="translate(-174.679 -326.177)" fill="#ff8087"/>
  <path id="Caminho_80" data-name="Caminho 80" d="M215.934,403.79a18.252,18.252,0,0,0,7.7-2.636,18.252,18.252,0,0,0,7.7,2.636v-7.56h-15.4v7.56Z" transform="translate(-174.679 -326.176)" fill="#e6646e"/>
  <path id="Caminho_81" data-name="Caminho 81" d="M175.387,324.112h-20.02c-6.379,0-11.55,3.792-11.55,8.47s5.171,8.47,11.55,8.47a13.837,13.837,0,0,0,8.2-2.517,3.06,3.06,0,0,1,3.611,0,13.838,13.838,0,0,0,8.2,2.517c6.379,0,11.55-3.792,11.55-8.47S181.766,324.112,175.387,324.112Z" transform="translate(-116.421 -267.784)" fill="#d4af91"/>
  <path id="Caminho_82" data-name="Caminho 82" d="M217.162,292.06c5.1,0,9.24,2.758,9.24,6.16,0,3.281-3.884,5.009-6.686,6.286a6.15,6.15,0,0,1-5.108,0c-2.8-1.277-6.686-3.005-6.686-6.286C207.922,294.818,212.059,292.06,217.162,292.06Z" transform="translate(-168.207 -241.806)" fill="#5d5360"/>
  <path id="Caminho_83" data-name="Caminho 83" d="M212.493,298.489a7.176,7.176,0,0,1,1.15-4.011c-3.358.923-5.722,3.124-5.722,5.7,0,3.281,3.884,5.009,6.686,6.286a6.151,6.151,0,0,0,5.108,0c.6-.275,1.256-.572,1.909-.9C217.835,304.89,212.926,302.387,212.493,298.489Z" transform="translate(-168.192 -243.761)" fill="#4b3f4e"/>
  <path id="Caminho_84" data-name="Caminho 84" d="M315.678,183.61a1.441,1.441,0,0,0-.683,1.92,3.909,3.909,0,0,1,.38,1.693v3.08a3.949,3.949,0,1,1-7.9,0v-3.08a3.954,3.954,0,0,1,3.949-3.949,1.441,1.441,0,1,0,0-2.882,6.839,6.839,0,0,0-6.831,6.831v3.08a6.831,6.831,0,1,0,13.662,0v-3.08a6.775,6.775,0,0,0-.659-2.93A1.441,1.441,0,0,0,315.678,183.61Z" transform="translate(-246.394 -151.416)"/>
  <path id="Caminho_85" data-name="Caminho 85" d="M147.4,183.61a1.441,1.441,0,0,0-.683,1.92,3.909,3.909,0,0,1,.38,1.693v3.08a3.949,3.949,0,1,1-7.9,0v-3.08a3.954,3.954,0,0,1,3.949-3.949,1.441,1.441,0,1,0,0-2.882,6.839,6.839,0,0,0-6.831,6.831v3.08a6.831,6.831,0,1,0,13.662,0v-3.08a6.775,6.775,0,0,0-.659-2.93A1.441,1.441,0,0,0,147.4,183.61Z" transform="translate(-110.271 -151.416)"/>
  <path id="Caminho_86" data-name="Caminho 86" d="M97.86,50.661A46.808,46.808,0,0,0,93.7,39.59C89.675,32.1,84.27,28.14,78.069,28.14c-4.671,0-10.572,2.817-11.3,3.173-2.424.947-3.8.578-6.294-.092a39.749,39.749,0,0,0-11.523-1.553,39.75,39.75,0,0,0-11.523,1.553c-2.49.67-3.87,1.039-6.294.092-.726-.355-6.627-3.173-11.3-3.173-6.2,0-11.605,3.959-15.63,11.45A46.821,46.821,0,0,0,.049,50.661a1.374,1.374,0,0,0,.185,1.171,1.263,1.263,0,0,0,.948.539c.307.131,2.429,1.291,2.283,8.109a46.619,46.619,0,0,0,1.68,14.467A4.464,4.464,0,0,0,8.411,78.01a4.559,4.559,0,0,0,1.069.128A4.356,4.356,0,0,0,12.628,76.8c.053-.055.1-.111.155-.166,1.965,9.323,8.236,16.8,14.083,19.778a9.973,9.973,0,0,0,3.155,3.661,12.756,12.756,0,0,0,1.155.747A16.6,16.6,0,0,0,41.2,110.7a9.1,9.1,0,0,0,15.509,0,16.531,16.531,0,0,0,10.026-9.879,12.722,12.722,0,0,0,1.154-.747,9.972,9.972,0,0,0,3.155-3.661c5.846-2.978,12.118-10.454,14.083-19.778.052.055.1.112.155.166a4.356,4.356,0,0,0,3.147,1.336A4.558,4.558,0,0,0,89.5,78.01a4.465,4.465,0,0,0,3.266-3.063,46.643,46.643,0,0,0,1.68-14.467c-.146-6.818,1.977-7.978,2.283-8.109a1.263,1.263,0,0,0,.948-.539A1.376,1.376,0,0,0,97.86,50.661ZM9.084,75.23A1.627,1.627,0,0,1,7.89,74.118,43.786,43.786,0,0,1,6.333,60.541c.142-6.676-1.784-9.308-3.214-10.34C4.238,46.032,9.029,31,19.84,31a21.855,21.855,0,0,1,7.042,1.607c-7.7,4.216-8.859,13.545-9.982,22.6-.914,7.366-1.858,14.983-6.336,19.609A1.531,1.531,0,0,1,9.084,75.23Zm26.01,27.128a16.867,16.867,0,0,0,3.9.453c.29,0,.578-.01.865-.024v3.178a9.067,9.067,0,0,0,.059,1.017A13.818,13.818,0,0,1,35.093,102.358Zm13.861,9.818a6.226,6.226,0,0,1-6.228-6.21V102.4a14.353,14.353,0,0,0,4.795-2.021v4.06a1.434,1.434,0,0,0,2.867,0v-4.06a14.349,14.349,0,0,0,4.795,2.021v3.567A6.226,6.226,0,0,1,48.954,112.176Zm9.036-5.189a9.086,9.086,0,0,0,.059-1.021v-3.178c.287.014.575.024.865.024a16.858,16.858,0,0,0,3.906-.455A13.721,13.721,0,0,1,57.991,106.987ZM91.577,60.541A43.787,43.787,0,0,1,90.02,74.118a1.627,1.627,0,0,1-1.194,1.112,1.531,1.531,0,0,1-1.48-.415c-4.477-4.626-5.422-12.243-6.336-19.609-.609-4.911-1.239-9.989-2.925-14.19a1.433,1.433,0,0,0-2.662,1.062c1.548,3.858,2.128,8.531,2.742,13.479.784,6.32,1.59,12.812,4.574,17.875a27.968,27.968,0,0,1-4.9,12.894,25.761,25.761,0,0,1-6.007,6.2,8.915,8.915,0,0,0-3.937-6.642,15.137,15.137,0,0,0-8.49-2.729c-.912-3.527-5.171-6.12-10.444-6.12s-9.532,2.594-10.444,6.121a17.081,17.081,0,0,0-2.026.175,1.43,1.43,0,1,0,.422,2.828,14.17,14.17,0,0,1,1.613-.144c.883,3.184,4.616,4.881,7.194,6.051l.1.048a7.578,7.578,0,0,0,6.272,0l.1-.048c2.578-1.171,6.311-2.867,7.194-6.052,5.327.173,9.584,3.231,9.584,6.966,0,3.846-4.512,6.974-10.059,6.974a12.321,12.321,0,0,1-7.309-2.215,4.487,4.487,0,0,0-5.3,0A12.322,12.322,0,0,1,39,99.953c-5.546,0-10.059-3.129-10.059-6.974a5.94,5.94,0,0,1,2.52-4.591,1.431,1.431,0,1,0-1.778-2.243,8.83,8.83,0,0,0-3.595,6.381,25.761,25.761,0,0,1-6.006-6.2,27.97,27.97,0,0,1-4.9-12.894c2.983-5.063,3.79-11.556,4.574-17.875.624-5.032,1.214-9.785,2.822-13.677a12.545,12.545,0,0,1,7.967-7.742c3.055,1.075,5.1.528,7.644-.158a36.725,36.725,0,0,1,10.776-1.454,36.719,36.719,0,0,1,10.776,1.454,16.352,16.352,0,0,0,4.316.765,9.849,9.849,0,0,0,3.326-.606,12.091,12.091,0,0,1,5.063,3.117,1.432,1.432,0,0,0,2.072-1.976,14.5,14.5,0,0,0-3.492-2.671A21.876,21.876,0,0,1,78.07,31c10.792,0,15.6,15.034,16.721,19.2C93.359,51.234,91.434,53.865,91.577,60.541ZM56.715,84.575c0,2.295-3.3,3.794-5.708,4.888l-.105.048a4.7,4.7,0,0,1-3.894,0l-.105-.048c-2.409-1.094-5.708-2.593-5.708-4.888,0-2.538,3.554-4.682,7.76-4.682S56.715,82.037,56.715,84.575Z" transform="translate(0 -28.14)"/>
</svg>
