<svg width="66" height="66" viewBox="0 0 66 66" fill="none" xmlns="http://www.w3.org/2000/svg">
<circle cx="33" cy="33" r="33" fill="#F1972C"/>
<g clip-path="url(#clip0)">
<path d="M45.375 40.3333C45.375 40.9411 45.1379 41.524 44.716 41.9538C44.294 42.3836 43.7217 42.625 43.125 42.625H22.875C22.2783 42.625 21.706 42.3836 21.284 41.9538C20.8621 41.524 20.625 40.9411 20.625 40.3333V27.7292C20.625 27.1214 20.8621 26.5385 21.284 26.1087C21.706 25.6789 22.2783 25.4375 22.875 25.4375H27.375L29.625 22H36.375L38.625 25.4375H43.125C43.7217 25.4375 44.294 25.6789 44.716 26.1087C45.1379 26.5385 45.375 27.1214 45.375 27.7292V40.3333Z" stroke="#41414C" stroke-width="1.5" stroke-linecap="round" stroke-linejoin="round"/>
<path d="M33 37.125C35.2782 37.125 37.125 35.2782 37.125 33C37.125 30.7218 35.2782 28.875 33 28.875C30.7218 28.875 28.875 30.7218 28.875 33C28.875 35.2782 30.7218 37.125 33 37.125Z" stroke="#41414C" stroke-width="1.5" stroke-linecap="round" stroke-linejoin="round"/>
</g>
<defs>
<clipPath id="clip0">
<rect width="27.5" height="27.5" fill="white" transform="translate(19.25 19.25)"/>
</clipPath>
</defs>
</svg>
