<svg id="instagram" xmlns="http://www.w3.org/2000/svg" width="35" height="35" viewBox="0 0 35 35">
  <g id="Grupo_80" data-name="Grupo 80">
    <g id="Grupo_79" data-name="Grupo 79">
      <path id="Caminho_116" data-name="Caminho 116" d="M24.063,0H10.938A10.939,10.939,0,0,0,0,10.938V24.063A10.939,10.939,0,0,0,10.938,35H24.063A10.939,10.939,0,0,0,35,24.063V10.938A10.939,10.939,0,0,0,24.063,0Zm7.656,24.063a7.665,7.665,0,0,1-7.656,7.656H10.938a7.665,7.665,0,0,1-7.656-7.656V10.938a7.665,7.665,0,0,1,7.656-7.656H24.063a7.665,7.665,0,0,1,7.656,7.656Z" fill="#383838"/>
    </g>
  </g>
  <g id="Grupo_82" data-name="Grupo 82" transform="translate(7.125 7.125)">
    <g id="Grupo_81" data-name="Grupo 81">
      <path id="Caminho_117" data-name="Caminho 117" d="M138.375,128a10.375,10.375,0,1,0,10.375,10.375A10.375,10.375,0,0,0,138.375,128Zm0,16.859a6.484,6.484,0,1,1,6.484-6.484A6.493,6.493,0,0,1,138.375,144.859Z" transform="translate(-128 -128)" fill="#383838"/>
    </g>
  </g>
  <g id="Grupo_84" data-name="Grupo 84" transform="translate(25.399 6.836)">
    <g id="Grupo_83" data-name="Grupo 83">
      <circle id="Elipse_15" data-name="Elipse 15" cx="1.382" cy="1.382" r="1.382" fill="#383838"/>
    </g>
  </g>
</svg>
