<svg xmlns="http://www.w3.org/2000/svg" width="19.029" height="23.421" viewBox="0 0 19.029 23.421">
  <g id="lixo" transform="translate(-48)">
    <path id="Caminho_4" data-name="Caminho 4" d="M65.2,2.928H61.174V2.2a2.2,2.2,0,0,0-2.2-2.2H56.051a2.2,2.2,0,0,0-2.2,2.2v.732H49.83A1.832,1.832,0,0,0,48,4.757V7.319a.732.732,0,0,0,.732.732h.4l.632,13.279a2.193,2.193,0,0,0,2.193,2.091H63.072a2.193,2.193,0,0,0,2.193-2.091L65.9,8.051h.4a.732.732,0,0,0,.732-.732V4.757A1.832,1.832,0,0,0,65.2,2.928ZM55.319,2.2a.733.733,0,0,1,.732-.732h2.928a.733.733,0,0,1,.732.732v.732H55.319ZM49.464,4.757a.366.366,0,0,1,.366-.366H65.2a.366.366,0,0,1,.366.366v1.83h-16.1ZM63.8,21.26a.731.731,0,0,1-.731.7H51.957a.731.731,0,0,1-.731-.7L50.6,8.051H64.432Z" fill="#707070"/>
    <path id="Caminho_5" data-name="Caminho 5" d="M240.732,218.978a.732.732,0,0,0,.732-.732v-9.515a.732.732,0,0,0-1.464,0v9.515A.732.732,0,0,0,240.732,218.978Z" transform="translate(-183.217 -198.485)" fill="#707070"/>
    <path id="Caminho_6" data-name="Caminho 6" d="M320.732,218.978a.732.732,0,0,0,.732-.732v-9.515a.732.732,0,0,0-1.464,0v9.515A.732.732,0,0,0,320.732,218.978Z" transform="translate(-259.558 -198.485)" fill="#707070"/>
    <path id="Caminho_7" data-name="Caminho 7" d="M160.732,218.978a.732.732,0,0,0,.732-.732v-9.515a.732.732,0,1,0-1.464,0v9.515A.732.732,0,0,0,160.732,218.978Z" transform="translate(-106.877 -198.485)" fill="#707070"/>
  </g>
</svg>
