<svg xmlns="http://www.w3.org/2000/svg" width="197.546" height="33.699" viewBox="0 0 197.546 33.699">
  <g id="logoMobile" transform="translate(-210.1 -169.251)">
    <path id="Caminho_123" data-name="Caminho 123" d="M322,227.661a11.854,11.854,0,0,1-2.031-.161,10.552,10.552,0,0,1-1.712-.439V232.2a13.216,13.216,0,0,1-1.454.275,14.046,14.046,0,0,1-2.057.141,5.623,5.623,0,0,1-3.327-.764,3.475,3.475,0,0,1-1.005-2.935V209.4a3.786,3.786,0,0,1,.529-2.081,4.841,4.841,0,0,1,1.458-1.434,12.644,12.644,0,0,1,3.686-1.5,20.1,20.1,0,0,1,5.026-.576,17.638,17.638,0,0,1,5.083.694,10.745,10.745,0,0,1,3.974,2.124,9.359,9.359,0,0,1,2.563,3.652,15.97,15.97,0,0,1,.023,10.511,10.3,10.3,0,0,1-6.122,6.078A13.068,13.068,0,0,1,322,227.661Zm-1.2-6.192a4.333,4.333,0,0,0,3.535-1.478,6.728,6.728,0,0,0,1.223-4.389,6.617,6.617,0,0,0-1.133-4.3,4.141,4.141,0,0,0-3.351-1.34,6.007,6.007,0,0,0-1.618.208,6.283,6.283,0,0,0-1.25.486v10.166a6.841,6.841,0,0,0,1.2.462,5.026,5.026,0,0,0,1.4.174Z" transform="translate(-100.311 -29.663)" fill="#003265"/>
    <path id="Caminho_124" data-name="Caminho 124" d="M392.24,218.819a4.021,4.021,0,0,0,2.171,2.346,8.444,8.444,0,0,0,3.421.67,13.882,13.882,0,0,0,3.686-.486,11.285,11.285,0,0,0,2.821-1.133,3.88,3.88,0,0,1,1.246,1.293,3.324,3.324,0,0,1,.509,1.756,3.15,3.15,0,0,1-.64,1.977,4.892,4.892,0,0,1-1.826,1.387,10.345,10.345,0,0,1-2.795.808,23.169,23.169,0,0,1-3.562.208,16.282,16.282,0,0,1-5.06-.714,11.262,11.262,0,0,1-4.038-2.292,10.444,10.444,0,0,1-2.681-3.837,13.873,13.873,0,0,1-.972-5.4,12.639,12.639,0,0,1,1.005-5.247,10.214,10.214,0,0,1,2.624-3.605,10.652,10.652,0,0,1,3.719-2.077,13.8,13.8,0,0,1,4.252-.67,12.85,12.85,0,0,1,4.46.737,10.747,10.747,0,0,1,3.465,2.031,8.8,8.8,0,0,1,2.242,3.1,9.755,9.755,0,0,1,.784,3.93,3.158,3.158,0,0,1-.878,2.4,4.389,4.389,0,0,1-2.449,1.062Zm3.93-9.288a4.222,4.222,0,0,0-2.935,1.062,4.614,4.614,0,0,0-1.411,3.016l7.858-1.293a2.925,2.925,0,0,0-.278-.948,3.226,3.226,0,0,0-.647-.9,3.1,3.1,0,0,0-1.062-.67A4.141,4.141,0,0,0,396.17,209.531Z" transform="translate(-149.618 -29.608)" fill="#003265"/>
    <path id="Caminho_125" data-name="Caminho 125" d="M465.527,217.756a9.461,9.461,0,0,1-6.263-1.846q-2.191-1.846-2.195-6.008v-20.53c.335-.09.824-.191,1.454-.3a11.687,11.687,0,0,1,2.01-.164,5.394,5.394,0,0,1,3.28.787,3.482,3.482,0,0,1,1.005,2.912V193.9h6.055a8.044,8.044,0,0,1,.529,1.27,5.285,5.285,0,0,1,.255,1.675,3.254,3.254,0,0,1-.717,2.346,2.58,2.58,0,0,1-1.917.717h-4.192v9.426a1.9,1.9,0,0,0,.761,1.712,3.87,3.87,0,0,0,2.151.506,9.233,9.233,0,0,0,1.431-.114,11.432,11.432,0,0,0,1.5-.315,5.14,5.14,0,0,1,.606,1.112,3.575,3.575,0,0,1,.392,1.535,3.635,3.635,0,0,1-1.393,2.861C469.4,217.371,467.745,217.756,465.527,217.756Z" transform="translate(-197.885 -19.659)" fill="#003265"/>
    <path id="Caminho_126" data-name="Caminho 126" d="M511.026,197.622a2.516,2.516,0,0,1-.831.932,2.781,2.781,0,0,1-1.293.379,4.844,4.844,0,0,1-1.22-.044,5.761,5.761,0,0,1-1.1-.295v-8.417a8.078,8.078,0,0,1,1.146-.606,5.08,5.08,0,0,1,1.484-.362,5.976,5.976,0,0,1,1.1.02,2.771,2.771,0,0,1,.982.288,1.917,1.917,0,0,1,.71.64,2.139,2.139,0,0,1,.335,1.035,9.892,9.892,0,0,1,0,1.565,13.941,13.941,0,0,1-.261,1.776,16.738,16.738,0,0,1-.456,1.722A7.98,7.98,0,0,1,511.026,197.622Z" transform="translate(-230.821 -19.762)" fill="#003265"/>
    <path id="Caminho_127" data-name="Caminho 127" d="M543.17,220.182a6.5,6.5,0,0,1-2.634,5.5q-2.634,1.987-7.764,1.987a22.047,22.047,0,0,1-3.605-.275,10.387,10.387,0,0,1-2.841-.858,5.025,5.025,0,0,1-1.85-1.454,3.351,3.351,0,0,1-.67-2.081,3.548,3.548,0,0,1,.462-1.87,4.691,4.691,0,0,1,1.109-1.273,18.331,18.331,0,0,0,3.073,1.32,12.643,12.643,0,0,0,4,.576,4.65,4.65,0,0,0,2.195-.415,1.246,1.246,0,0,0,.764-1.109,1.163,1.163,0,0,0-.553-1.005,5.213,5.213,0,0,0-1.85-.6l-1.387-.278a12.973,12.973,0,0,1-5.984-2.469,5.908,5.908,0,0,1-1.823-4.815,5.857,5.857,0,0,1,2.677-5.421A10.407,10.407,0,0,1,529.7,204.2a16.188,16.188,0,0,1,4.168-.4,38.265,38.265,0,0,1,4.567.449,8.282,8.282,0,0,1,2.346.71,4.772,4.772,0,0,1,1.756,1.317,2.976,2.976,0,0,1,.647,1.92,3.957,3.957,0,0,1-.392,1.826,4.091,4.091,0,0,1-1.005,1.27,5.7,5.7,0,0,0-1.109-.486q-.74-.251-1.615-.462c-.586-.137-2.289-.509-2.888-.6a11.163,11.163,0,0,0-1.642-.137,6.33,6.33,0,0,0-2.346.335,1.149,1.149,0,0,0-.834,1.086.982.982,0,0,0,.462.834,5.342,5.342,0,0,0,1.756.6l1.434.335q4.436,1.005,6.306,2.8a6.051,6.051,0,0,1,1.86,4.591Z" transform="translate(-242.289 -29.604)" fill="#003265"/>
    <path id="Caminho_128" data-name="Caminho 128" d="M614.152,227.7a11.88,11.88,0,0,1-2.034-.164,10.6,10.6,0,0,1-1.709-.439v5.137a13.831,13.831,0,0,1-1.458.278,14.5,14.5,0,0,1-2.054.137,5.623,5.623,0,0,1-3.327-.764,3.47,3.47,0,0,1-1.005-2.932V209.46a3.792,3.792,0,0,1,.533-2.081,4.744,4.744,0,0,1,1.454-1.431,12.573,12.573,0,0,1,3.686-1.5,20.238,20.238,0,0,1,5.026-.576,17.625,17.625,0,0,1,5.083.694,10.723,10.723,0,0,1,3.974,2.124,9.383,9.383,0,0,1,2.567,3.652,15.98,15.98,0,0,1,.023,10.515,10.274,10.274,0,0,1-6.125,6.075A13.049,13.049,0,0,1,614.152,227.7Zm-1.2-6.2a4.327,4.327,0,0,0,3.538-1.478,8.6,8.6,0,0,0,.09-8.688,4.133,4.133,0,0,0-3.351-1.34,6.008,6.008,0,0,0-1.618.208,6.165,6.165,0,0,0-1.246.486v10.166a6.5,6.5,0,0,0,1.2.462,4.969,4.969,0,0,0,1.384.2Z" transform="translate(-294.693 -29.704)" fill="#003265"/>
    <path id="Caminho_129" data-name="Caminho 129" d="M681.4,217.8a5.623,5.623,0,0,1-3.327-.764,3.512,3.512,0,0,1-1.005-2.935V189.388a12.279,12.279,0,0,1,1.458-.278,14,14,0,0,1,2.054-.141,5.623,5.623,0,0,1,3.327.764,3.516,3.516,0,0,1,1.005,2.935v24.7a13.306,13.306,0,0,1-1.458.275A14,14,0,0,1,681.4,217.8Z" transform="translate(-344.252 -19.699)" fill="#003265"/>
    <path id="Caminho_130" data-name="Caminho 130" d="M715.817,203.868a18.994,18.994,0,0,1,4.57.509,10.177,10.177,0,0,1,3.495,1.545,6.973,6.973,0,0,1,2.242,2.634,8.444,8.444,0,0,1,.784,3.766v10.354a2.845,2.845,0,0,1-.67,1.964,6.739,6.739,0,0,1-1.592,1.32q-3.016,1.8-8.457,1.8a19.276,19.276,0,0,1-4.413-.462,10.387,10.387,0,0,1-3.374-1.384,6.336,6.336,0,0,1-2.171-2.346,6.966,6.966,0,0,1-.764-3.327,6.266,6.266,0,0,1,1.893-4.9,10.188,10.188,0,0,1,5.87-2.124l6.055-.647v-.335a1.98,1.98,0,0,0-1.179-1.917,7.874,7.874,0,0,0-3.4-.576,15.693,15.693,0,0,0-3.394.369,17.97,17.97,0,0,0-3.016.925,3.213,3.213,0,0,1-1.005-1.273,3.994,3.994,0,0,1-.416-1.779,2.966,2.966,0,0,1,.576-1.917,4.487,4.487,0,0,1,1.779-1.223,13.943,13.943,0,0,1,3.166-.741,27.431,27.431,0,0,1,3.418-.235Zm.372,18.161a10.438,10.438,0,0,0,1.732-.161,4.245,4.245,0,0,0,1.411-.439v-3.686l-3.327.275a5.15,5.15,0,0,0-2.128.556,1.5,1.5,0,0,0-.831,1.387,1.833,1.833,0,0,0,.717,1.5A3.944,3.944,0,0,0,716.189,222.029Z" transform="translate(-363.156 -29.655)" fill="#003265"/>
    <path id="Caminho_131" data-name="Caminho 131" d="M788.325,210.082a6.548,6.548,0,0,0-2.195.369,4.955,4.955,0,0,0-1.8,1.109,5.582,5.582,0,0,0-1.223,1.826,6.392,6.392,0,0,0-.462,2.52,5.3,5.3,0,0,0,1.618,4.252,5.947,5.947,0,0,0,4.021,1.384,7.917,7.917,0,0,0,2.449-.335,15.83,15.83,0,0,0,1.846-.717,4.806,4.806,0,0,1,1.317,1.387,3.455,3.455,0,0,1,.439,1.8,3.349,3.349,0,0,1-1.823,2.959,9.93,9.93,0,0,1-5.2,1.086,16.8,16.8,0,0,1-5.244-.764,10.75,10.75,0,0,1-3.977-2.252,9.882,9.882,0,0,1-2.516-3.686,13.675,13.675,0,0,1-.878-5.107A13.115,13.115,0,0,1,775.7,210.6a10.368,10.368,0,0,1,2.7-3.743,11.453,11.453,0,0,1,3.951-2.218,15.034,15.034,0,0,1,4.738-.741,9.212,9.212,0,0,1,5.13,1.2,3.6,3.6,0,0,1,1.8,3.1,3.39,3.39,0,0,1-.415,1.639,5.737,5.737,0,0,1-.972,1.317,15.414,15.414,0,0,0-1.893-.714A8.043,8.043,0,0,0,788.325,210.082Z" transform="translate(-409.242 -29.676)" fill="#003265"/>
    <path id="Caminho_132" data-name="Caminho 132" d="M841,218.776a3.994,3.994,0,0,0,2.171,2.346,8.417,8.417,0,0,0,3.418.67,13.771,13.771,0,0,0,3.686-.486,11.179,11.179,0,0,0,2.818-1.133,3.88,3.88,0,0,1,1.247,1.293,3.3,3.3,0,0,1,.509,1.759,3.137,3.137,0,0,1-.647,1.987,4.9,4.9,0,0,1-1.826,1.384,10.27,10.27,0,0,1-2.794.811,23.254,23.254,0,0,1-3.559.255,16.161,16.161,0,0,1-5.06-.764,11.2,11.2,0,0,1-4.044-2.289,10.5,10.5,0,0,1-2.681-3.833,13.9,13.9,0,0,1-.972-5.408,12.612,12.612,0,0,1,1.005-5.244,10.154,10.154,0,0,1,2.634-3.605,10.66,10.66,0,0,1,3.719-2.081,13.822,13.822,0,0,1,4.252-.67,12.85,12.85,0,0,1,4.46.741,10.659,10.659,0,0,1,3.468,2.017,8.739,8.739,0,0,1,2.242,3.1,9.676,9.676,0,0,1,.787,3.94,3.156,3.156,0,0,1-.878,2.4,4.355,4.355,0,0,1-2.449,1.062Zm3.927-9.292a4.215,4.215,0,0,0-2.935,1.066,4.614,4.614,0,0,0-1.411,3.016l7.858-1.293a2.867,2.867,0,0,0-.278-.948,3.273,3.273,0,0,0-.647-.9,3.036,3.036,0,0,0-1.062-.67A4.212,4.212,0,0,0,844.923,209.484Z" transform="translate(-448.185 -29.588)" fill="#003265"/>
  </g>
</svg>
