<svg xmlns="http://www.w3.org/2000/svg" width="248" height="53" viewBox="0 0 248 53">
  <g id="Pet_s_Place_Horizontal" data-name="Pet&apos;s Place Horizontal" transform="translate(-159.646 -159.64)">
    <path id="Caminho_121" data-name="Caminho 121" d="M160.013,201.992c-.945-2.921,0-5.845,2.11-6.529s4.593,1.126,5.541,4.047,0,5.845-2.11,6.529-4.593-1.126-5.541-4.047" transform="translate(0 -23.862)" fill="#c7576d"/>
    <ellipse id="Elipse_16" data-name="Elipse 16" cx="5.561" cy="4.02" rx="5.561" ry="4.02" transform="translate(190.558 180.951) rotate(-72.03)" fill="#c7576d"/>
    <ellipse id="Elipse_17" data-name="Elipse 17" cx="5.185" cy="7.172" rx="5.185" ry="7.172" transform="translate(167.871 159.64)" fill="#c7576d"/>
    <ellipse id="Elipse_18" data-name="Elipse 18" cx="5.185" cy="7.172" rx="5.185" ry="7.172" transform="translate(181.528 159.64)" fill="#c7576d"/>
    <path id="Caminho_122" data-name="Caminho 122" d="M206.831,223.249a13.358,13.358,0,1,0-26.716,0c0,.057,0,.117,0,.174v.171a26.607,26.607,0,0,0,13.4,22.943,26.7,26.7,0,0,0,13.312-22.943v-.335Zm-13.094,8.646a8.013,8.013,0,1,1,7.745-7.748,8.013,8.013,0,0,1-7.745,7.748Z" transform="translate(-13.612 -33.897)" fill="#c7576d"/>
    <path id="Caminho_123" data-name="Caminho 123" d="M322,227.654a11.854,11.854,0,0,1-2.03-.161,10.55,10.55,0,0,1-1.712-.439v5.135a13.21,13.21,0,0,1-1.454.275,14.044,14.044,0,0,1-2.057.141,5.621,5.621,0,0,1-3.326-.764,3.474,3.474,0,0,1-1-2.934V209.4a3.786,3.786,0,0,1,.529-2.08,4.841,4.841,0,0,1,1.457-1.434,12.64,12.64,0,0,1,3.685-1.5,20.1,20.1,0,0,1,5.025-.576,17.634,17.634,0,0,1,5.082.693,10.743,10.743,0,0,1,3.973,2.124,9.356,9.356,0,0,1,2.563,3.651,15.965,15.965,0,0,1,.023,10.508,10.294,10.294,0,0,1-6.12,6.077A13.063,13.063,0,0,1,322,227.654Zm-1.2-6.19a4.331,4.331,0,0,0,3.534-1.477,6.726,6.726,0,0,0,1.223-4.388,6.614,6.614,0,0,0-1.132-4.3,4.139,4.139,0,0,0-3.35-1.34,6,6,0,0,0-1.618.208,6.28,6.28,0,0,0-1.249.486v10.163a6.839,6.839,0,0,0,1.2.462,5.026,5.026,0,0,0,1.4.174Z" transform="translate(-100.31 -29.658)" fill="#003265"/>
    <path id="Caminho_124" data-name="Caminho 124" d="M392.238,218.815a4.02,4.02,0,0,0,2.171,2.345,8.442,8.442,0,0,0,3.42.67,13.877,13.877,0,0,0,3.685-.486,11.282,11.282,0,0,0,2.82-1.132,3.879,3.879,0,0,1,1.246,1.293,3.323,3.323,0,0,1,.509,1.755,3.149,3.149,0,0,1-.64,1.976,4.89,4.89,0,0,1-1.826,1.387,10.34,10.34,0,0,1-2.794.807,23.161,23.161,0,0,1-3.561.208,16.277,16.277,0,0,1-5.058-.714,11.259,11.259,0,0,1-4.036-2.291,10.441,10.441,0,0,1-2.68-3.835,13.869,13.869,0,0,1-.971-5.4,12.636,12.636,0,0,1,1-5.246,10.21,10.21,0,0,1,2.623-3.6,10.649,10.649,0,0,1,3.718-2.077,13.8,13.8,0,0,1,4.251-.67,12.847,12.847,0,0,1,4.459.737,10.743,10.743,0,0,1,3.464,2.03,8.8,8.8,0,0,1,2.241,3.1,9.751,9.751,0,0,1,.784,3.929,3.157,3.157,0,0,1-.878,2.4,4.388,4.388,0,0,1-2.449,1.062Zm3.929-9.286a4.221,4.221,0,0,0-2.934,1.062,4.612,4.612,0,0,0-1.41,3.015l7.855-1.293a2.925,2.925,0,0,0-.278-.948,3.226,3.226,0,0,0-.646-.9,3.1,3.1,0,0,0-1.062-.67A4.14,4.14,0,0,0,396.167,209.529Z" transform="translate(-149.616 -29.604)" fill="#003265"/>
    <path id="Caminho_125" data-name="Caminho 125" d="M465.525,217.748a9.459,9.459,0,0,1-6.261-1.846q-2.191-1.846-2.194-6.006V189.372c.335-.09.824-.191,1.454-.3a11.683,11.683,0,0,1,2.01-.164,5.392,5.392,0,0,1,3.279.787,3.481,3.481,0,0,1,1,2.911V193.9h6.053a8.045,8.045,0,0,1,.529,1.27,5.282,5.282,0,0,1,.255,1.675,3.253,3.253,0,0,1-.717,2.345,2.579,2.579,0,0,1-1.916.717h-4.191v9.423a1.9,1.9,0,0,0,.76,1.712,3.869,3.869,0,0,0,2.151.506,9.235,9.235,0,0,0,1.43-.114,11.432,11.432,0,0,0,1.5-.315,5.136,5.136,0,0,1,.606,1.112,3.575,3.575,0,0,1,.392,1.534,3.634,3.634,0,0,1-1.393,2.86C469.4,217.363,467.742,217.748,465.525,217.748Z" transform="translate(-197.883 -19.656)" fill="#003265"/>
    <path id="Caminho_126" data-name="Caminho 126" d="M511.025,197.619a2.516,2.516,0,0,1-.831.931,2.78,2.78,0,0,1-1.293.379,4.843,4.843,0,0,1-1.219-.044,5.76,5.76,0,0,1-1.1-.295v-8.415a8.078,8.078,0,0,1,1.146-.606,5.078,5.078,0,0,1,1.484-.362,5.975,5.975,0,0,1,1.1.02,2.77,2.77,0,0,1,.981.288,1.916,1.916,0,0,1,.71.64,2.137,2.137,0,0,1,.335,1.035,9.872,9.872,0,0,1,0,1.564,13.945,13.945,0,0,1-.261,1.775,16.764,16.764,0,0,1-.456,1.722,7.98,7.98,0,0,1-.59,1.367Z" transform="translate(-230.82 -19.761)" fill="#003265"/>
    <path id="Caminho_127" data-name="Caminho 127" d="M543.165,220.177a6.5,6.5,0,0,1-2.633,5.5q-2.633,1.986-7.761,1.986a22.04,22.04,0,0,1-3.6-.275,10.385,10.385,0,0,1-2.841-.858,5.024,5.024,0,0,1-1.849-1.454,3.349,3.349,0,0,1-.67-2.08,3.547,3.547,0,0,1,.462-1.869,4.69,4.69,0,0,1,1.109-1.273,18.322,18.322,0,0,0,3.072,1.32,12.64,12.64,0,0,0,4,.576,4.649,4.649,0,0,0,2.194-.415,1.246,1.246,0,0,0,.764-1.109,1.162,1.162,0,0,0-.553-1,5.211,5.211,0,0,0-1.849-.6l-1.387-.278a12.969,12.969,0,0,1-5.983-2.469,5.906,5.906,0,0,1-1.822-4.814,5.855,5.855,0,0,1,2.676-5.42A10.4,10.4,0,0,1,529.7,204.2a16.183,16.183,0,0,1,4.167-.4,38.263,38.263,0,0,1,4.566.449,8.281,8.281,0,0,1,2.345.71,4.77,4.77,0,0,1,1.755,1.316,2.975,2.975,0,0,1,.647,1.919,3.956,3.956,0,0,1-.392,1.826,4.089,4.089,0,0,1-1,1.27,5.7,5.7,0,0,0-1.109-.486q-.74-.251-1.615-.462c-.586-.137-2.288-.509-2.887-.6a11.163,11.163,0,0,0-1.641-.137,6.328,6.328,0,0,0-2.345.335,1.149,1.149,0,0,0-.834,1.085.981.981,0,0,0,.462.834,5.339,5.339,0,0,0,1.755.6l1.434.335q4.435,1,6.3,2.8A6.05,6.05,0,0,1,543.165,220.177Z" transform="translate(-242.286 -29.6)" fill="#003265"/>
    <path id="Caminho_128" data-name="Caminho 128" d="M614.149,227.694a11.878,11.878,0,0,1-2.033-.164,10.6,10.6,0,0,1-1.708-.439v5.135a13.825,13.825,0,0,1-1.457.278,14.5,14.5,0,0,1-2.053.137,5.622,5.622,0,0,1-3.326-.764,3.47,3.47,0,0,1-1-2.931V209.458a3.792,3.792,0,0,1,.533-2.08,4.744,4.744,0,0,1,1.454-1.43,12.569,12.569,0,0,1,3.685-1.5,20.233,20.233,0,0,1,5.025-.576,17.62,17.62,0,0,1,5.082.693,10.719,10.719,0,0,1,3.973,2.124,9.38,9.38,0,0,1,2.566,3.651,15.975,15.975,0,0,1,.023,10.512,10.271,10.271,0,0,1-6.123,6.073,13.044,13.044,0,0,1-4.633.774Zm-1.2-6.194a4.326,4.326,0,0,0,3.537-1.477,8.6,8.6,0,0,0,.09-8.686,4.131,4.131,0,0,0-3.35-1.34,6.006,6.006,0,0,0-1.618.208,6.164,6.164,0,0,0-1.246.486v10.163a6.5,6.5,0,0,0,1.2.462,4.968,4.968,0,0,0,1.383.2Z" transform="translate(-294.688 -29.699)" fill="#003265"/>
    <path id="Caminho_129" data-name="Caminho 129" d="M681.4,217.788a5.622,5.622,0,0,1-3.326-.764,3.511,3.511,0,0,1-1-2.934v-24.7a12.265,12.265,0,0,1,1.457-.278,13.994,13.994,0,0,1,2.053-.141,5.621,5.621,0,0,1,3.326.764,3.515,3.515,0,0,1,1,2.934v24.695a13.3,13.3,0,0,1-1.457.275A14,14,0,0,1,681.4,217.788Z" transform="translate(-344.25 -19.696)" fill="#003265"/>
    <path id="Caminho_130" data-name="Caminho 130" d="M715.814,203.868a18.989,18.989,0,0,1,4.569.509,10.175,10.175,0,0,1,3.494,1.544,6.971,6.971,0,0,1,2.241,2.633,8.442,8.442,0,0,1,.784,3.765V222.67a2.844,2.844,0,0,1-.67,1.963,6.738,6.738,0,0,1-1.591,1.32q-3.015,1.8-8.455,1.8a19.27,19.27,0,0,1-4.412-.462,10.384,10.384,0,0,1-3.373-1.383,6.335,6.335,0,0,1-2.171-2.345,6.964,6.964,0,0,1-.764-3.326,6.265,6.265,0,0,1,1.893-4.9,10.185,10.185,0,0,1,5.869-2.124l6.053-.647v-.335a1.98,1.98,0,0,0-1.179-1.916,7.871,7.871,0,0,0-3.4-.576,15.69,15.69,0,0,0-3.393.368,17.961,17.961,0,0,0-3.015.925,3.212,3.212,0,0,1-1-1.273,3.993,3.993,0,0,1-.415-1.779,2.965,2.965,0,0,1,.576-1.916,4.485,4.485,0,0,1,1.779-1.223,13.938,13.938,0,0,1,3.166-.74A27.415,27.415,0,0,1,715.814,203.868Zm.372,18.156a10.437,10.437,0,0,0,1.732-.161,4.245,4.245,0,0,0,1.41-.439v-3.685l-3.326.275a5.149,5.149,0,0,0-2.127.556,1.5,1.5,0,0,0-.831,1.387,1.832,1.832,0,0,0,.717,1.5A3.942,3.942,0,0,0,716.186,222.024Z" transform="translate(-363.151 -29.652)" fill="#003265"/>
    <path id="Caminho_131" data-name="Caminho 131" d="M788.321,210.08a6.546,6.546,0,0,0-2.194.368,4.955,4.955,0,0,0-1.8,1.109,5.578,5.578,0,0,0-1.223,1.826,6.387,6.387,0,0,0-.462,2.519,5.3,5.3,0,0,0,1.618,4.251,5.946,5.946,0,0,0,4.02,1.383,7.915,7.915,0,0,0,2.449-.335,15.823,15.823,0,0,0,1.846-.717,4.8,4.8,0,0,1,1.317,1.387,3.454,3.454,0,0,1,.439,1.8,3.348,3.348,0,0,1-1.822,2.958,9.928,9.928,0,0,1-5.2,1.085,16.8,16.8,0,0,1-5.242-.764,10.746,10.746,0,0,1-3.976-2.251,9.879,9.879,0,0,1-2.516-3.685,13.67,13.67,0,0,1-.878-5.105,13.111,13.111,0,0,1,1-5.313,10.364,10.364,0,0,1,2.7-3.742,11.449,11.449,0,0,1,3.949-2.218,15.031,15.031,0,0,1,4.737-.74,9.21,9.21,0,0,1,5.129,1.2,3.6,3.6,0,0,1,1.8,3.1,3.391,3.391,0,0,1-.415,1.638,5.734,5.734,0,0,1-.971,1.316,15.416,15.416,0,0,0-1.893-.714A8.039,8.039,0,0,0,788.321,210.08Z" transform="translate(-409.229 -29.673)" fill="#003265"/>
    <path id="Caminho_132" data-name="Caminho 132" d="M840.994,218.772a3.993,3.993,0,0,0,2.171,2.345,8.415,8.415,0,0,0,3.417.67,13.769,13.769,0,0,0,3.685-.486,11.178,11.178,0,0,0,2.817-1.132,3.879,3.879,0,0,1,1.246,1.293,3.3,3.3,0,0,1,.509,1.759,3.135,3.135,0,0,1-.647,1.986,4.894,4.894,0,0,1-1.826,1.383,10.266,10.266,0,0,1-2.794.811,23.248,23.248,0,0,1-3.557.255,16.157,16.157,0,0,1-5.058-.764,11.2,11.2,0,0,1-4.043-2.288,10.5,10.5,0,0,1-2.68-3.832,13.9,13.9,0,0,1-.971-5.407,12.608,12.608,0,0,1,1-5.242,10.15,10.15,0,0,1,2.633-3.6,10.656,10.656,0,0,1,3.718-2.08,13.818,13.818,0,0,1,4.251-.67,12.847,12.847,0,0,1,4.459.74,10.657,10.657,0,0,1,3.467,2.017,8.737,8.737,0,0,1,2.241,3.1,9.669,9.669,0,0,1,.787,3.939,3.155,3.155,0,0,1-.878,2.4,4.354,4.354,0,0,1-2.449,1.062Zm3.926-9.289a4.214,4.214,0,0,0-2.934,1.065,4.613,4.613,0,0,0-1.41,3.015l7.855-1.293a2.865,2.865,0,0,0-.278-.948,3.273,3.273,0,0,0-.647-.9,3.035,3.035,0,0,0-1.062-.67A4.211,4.211,0,0,0,844.92,209.483Z" transform="translate(-448.178 -29.585)" fill="#003265"/>
  </g>
</svg>
