<svg width="248" height="53" viewBox="0 0 248 53" fill="none" xmlns="http://www.w3.org/2000/svg">
<path d="M0.366134 18.4578C-0.577702 15.563 0.36613 12.6648 2.4747 11.9876C4.58327 11.3104 7.06335 13.1031 8.01054 15.9979C8.95772 18.8927 8.01054 21.7909 5.90197 22.4681C3.7934 23.1453 1.31332 21.3527 0.366134 18.4578Z" fill="#C7576D"/>
<path d="M40.2411 18.4639C41.1878 15.5689 40.2447 12.6717 38.1348 11.9929C36.0248 11.3141 33.5469 13.1108 32.6003 16.0058C31.6536 18.9009 32.5966 21.7981 34.7066 22.4769C36.8165 23.1556 39.2944 21.359 40.2411 18.4639Z" fill="#C7576D"/>
<path d="M13.3991 14.2152C16.2606 14.2152 18.5802 11.033 18.5802 7.10761C18.5802 3.18219 16.2606 0 13.3991 0C10.5377 0 8.21808 3.18219 8.21808 7.10761C8.21808 11.033 10.5377 14.2152 13.3991 14.2152Z" fill="#C7576D"/>
<path d="M27.0446 14.2152C29.906 14.2152 32.2256 11.033 32.2256 7.10761C32.2256 3.18219 29.906 0 27.0446 0C24.1832 0 21.8635 3.18219 21.8635 7.10761C21.8635 11.033 24.1832 14.2152 27.0446 14.2152Z" fill="#C7576D"/>
<path d="M33.5443 29.9211C33.5531 28.177 33.2144 26.4484 32.5476 24.8346C31.8808 23.2207 30.8991 21.7535 29.6589 20.5172C28.4186 19.2808 26.9443 18.2997 25.3206 17.6303C23.697 16.9608 21.9559 16.6162 20.1976 16.6162C18.4392 16.6162 16.6982 16.9608 15.0745 17.6303C13.4508 18.2997 11.9765 19.2808 10.7363 20.5172C9.49603 21.7535 8.51431 23.2207 7.84752 24.8346C7.18073 26.4484 6.84201 28.177 6.85081 29.9211C6.85249 29.9775 6.85248 30.0372 6.85248 30.0937V30.263C6.87964 34.8841 8.13072 39.4171 10.4804 43.4076C12.83 47.3981 16.1957 50.7061 20.2402 53C24.262 50.6878 27.605 47.3734 29.9379 43.3853C32.2709 39.3972 33.5129 34.8737 33.541 30.263V29.931L33.5443 29.9211ZM20.4611 38.4894C18.8563 38.5418 17.2726 38.1143 15.9158 37.2625C14.5591 36.4107 13.4919 35.1739 12.8529 33.7128C12.2139 32.2516 12.0327 30.6337 12.3327 29.069C12.6328 27.5044 13.4002 26.0654 14.5354 24.939C15.6705 23.8125 17.121 23.0507 18.6983 22.7524C20.2756 22.4541 21.9069 22.6332 23.3803 23.2664C24.8537 23.8995 26.101 24.9575 26.9604 26.3029C27.8198 27.6483 28.2514 29.2189 28.1992 30.8107C28.1332 32.8259 27.2969 34.7406 25.8598 36.1666C24.4228 37.5926 22.4927 38.423 20.4611 38.4894Z" fill="#C7576D"/>
<path d="M62.0368 38.2968C61.3574 38.3015 60.6788 38.2482 60.0086 38.1375C59.4272 38.0402 58.8551 37.8947 58.2983 37.7026V42.7918C57.8196 42.9093 57.3346 43.0002 56.8457 43.064C56.1651 43.1603 55.4782 43.2069 54.7907 43.2034C53.2511 43.2034 52.1433 42.9511 51.4672 42.4465C50.7911 41.9419 50.4564 40.9725 50.4631 39.5384V20.2041C50.4351 19.4807 50.6188 18.7647 50.9919 18.1425C51.3697 17.5715 51.8661 17.0871 52.4478 16.7217C53.5882 16.0362 54.8308 15.5343 56.1295 15.2344C57.772 14.8352 59.4588 14.6433 61.1499 14.6634C62.867 14.6458 64.5775 14.8773 66.2272 15.3506C67.6854 15.766 69.0383 16.4834 70.1966 17.4553C71.3318 18.4391 72.2102 19.6806 72.757 21.0739C73.9494 24.4432 73.9577 28.1134 72.7805 31.488C72.261 32.8707 71.4452 34.1251 70.3895 35.1648C69.3338 36.2045 68.0633 37.0046 66.6656 37.51C65.1833 38.0477 63.615 38.3143 62.0368 38.2968ZM60.8386 32.1619C62.376 32.1619 63.553 31.6739 64.3696 30.6979C65.1863 29.7219 65.5935 28.2722 65.5913 26.349C65.5913 24.3947 65.2142 22.975 64.46 22.0897C63.7058 21.2045 62.5902 20.7618 61.1131 20.7618C60.5673 20.7572 60.0234 20.8264 59.4965 20.9676C59.0642 21.0835 58.6457 21.2448 58.2481 21.449V31.5212C58.6332 31.711 59.0355 31.8644 59.4496 31.9793C59.9065 32.1021 60.3787 32.1602 60.852 32.1519L60.8386 32.1619Z" fill="white"/>
<path d="M82.9752 29.5425C83.1574 30.0563 83.4438 30.5277 83.8168 30.9273C84.1899 31.327 84.6416 31.6466 85.144 31.8663C86.2241 32.321 87.388 32.5471 88.5612 32.5303C89.8047 32.5343 91.043 32.3724 92.2429 32.0489C93.229 31.8027 94.177 31.4252 95.061 30.9268C95.5714 31.2515 95.9978 31.6904 96.3061 32.2083C96.6362 32.7296 96.8125 33.3322 96.8148 33.9478C96.8312 34.6536 96.6059 35.3441 96.1755 35.9065C95.6859 36.5015 95.0607 36.9726 94.3514 37.2809C93.4636 37.6766 92.5239 37.946 91.5601 38.0809C90.3813 38.2402 89.1918 38.309 88.0023 38.2868C86.2907 38.3164 84.585 38.0777 82.9484 37.5796C81.4597 37.1088 80.0861 36.3355 78.9154 35.3089C77.7444 34.2591 76.8289 32.9594 76.2378 31.5078C75.5578 29.8049 75.2278 27.9843 75.2672 26.153C75.2246 24.3689 75.5669 22.5964 76.2713 20.9543C76.8689 19.5867 77.7638 18.3669 78.8919 17.3822C79.9779 16.455 81.2416 15.7549 82.607 15.324C83.9791 14.8837 85.4123 14.6597 86.8543 14.66C88.3711 14.6405 89.8793 14.8877 91.3091 15.3904C92.5799 15.8393 93.7539 16.5218 94.7698 17.4021C95.7338 18.2495 96.4982 19.2967 97.0089 20.4696C97.5389 21.6999 97.8056 23.0259 97.7921 24.3637C97.7921 25.3994 97.4998 26.1929 96.9152 26.7439C96.2296 27.3382 95.3745 27.706 94.4686 27.7963L82.9752 29.5425ZM86.9012 20.3401C85.8242 20.3065 84.7751 20.6831 83.9693 21.3925C83.1411 22.1798 82.6386 23.2451 82.5602 24.3803L90.4088 23.0988C90.3705 22.7723 90.2766 22.4546 90.131 22.1594C89.9692 21.8269 89.7507 21.5248 89.485 21.2663C89.1807 20.9755 88.8197 20.7496 88.424 20.6024C87.9375 20.4208 87.4209 20.3319 86.9012 20.3401Z" fill="white"/>
<path d="M107.994 38.2968C105.283 38.2968 103.197 37.687 101.738 36.4676C100.279 35.2481 99.5481 33.264 99.5459 30.5152V10.1751C99.8806 10.0854 100.369 9.98583 100.998 9.8796C101.662 9.76808 102.334 9.71365 103.007 9.71694C104.515 9.71694 105.607 9.97698 106.283 10.4971C106.959 11.0172 107.294 11.9788 107.287 13.382V14.6634H113.335C113.547 15.067 113.724 15.488 113.864 15.9216C114.038 16.4577 114.124 17.0182 114.118 17.5815C114.118 18.6471 113.88 19.4217 113.402 19.9053C113.149 20.1469 112.848 20.3346 112.519 20.4568C112.19 20.579 111.839 20.6331 111.488 20.6157H107.301V29.9542C107.301 30.7509 107.554 31.3164 108.061 31.6506C108.712 32.0213 109.459 32.1955 110.209 32.1519C110.688 32.1511 111.166 32.1133 111.638 32.039C112.144 31.9683 112.643 31.864 113.134 31.727C113.381 32.0681 113.585 32.4383 113.74 32.8291C113.984 33.3005 114.118 33.8201 114.132 34.3496C114.132 34.8958 114.006 35.4349 113.765 35.926C113.524 36.4171 113.174 36.8474 112.74 37.1843C111.863 37.915 110.209 38.2968 107.994 38.2968Z" fill="white"/>
<path d="M120.558 18.1624C120.364 18.5343 120.078 18.8517 119.728 19.0853C119.335 19.3135 118.891 19.4424 118.436 19.4605C118.03 19.4971 117.62 19.4826 117.218 19.4173C116.842 19.3563 116.473 19.2585 116.117 19.1252V10.7859C116.481 10.5555 116.864 10.3546 117.261 10.185C117.734 9.99208 118.234 9.8712 118.744 9.82651C119.109 9.7999 119.475 9.80657 119.838 9.84643C120.18 9.8804 120.513 9.97721 120.819 10.1319C121.106 10.2804 121.35 10.4986 121.529 10.766C121.728 11.0736 121.843 11.427 121.863 11.7918C121.905 12.3078 121.905 12.8262 121.863 13.3421C121.814 13.9336 121.727 14.5213 121.602 15.1016C121.481 15.678 121.329 16.2476 121.147 16.808C120.994 17.2767 120.796 17.7301 120.558 18.1624Z" fill="white"/>
<path d="M141.225 30.8971C141.225 33.2165 140.348 35.0324 138.595 36.3448C136.841 37.6572 134.256 38.3134 130.84 38.3134C129.634 38.3206 128.429 38.2296 127.238 38.0412C126.256 37.8941 125.3 37.6079 124.4 37.1913C123.678 36.8628 123.045 36.369 122.553 35.7505C122.104 35.1569 121.868 34.4311 121.883 33.689C121.862 33.0411 122.022 32.4 122.345 31.8366C122.635 31.353 123.01 30.9256 123.453 30.575C124.434 31.1029 125.461 31.5407 126.522 31.883C127.814 32.2844 129.162 32.4772 130.515 32.454C131.269 32.4955 132.021 32.3542 132.707 32.0424C132.927 31.9509 133.116 31.7988 133.251 31.604C133.387 31.4092 133.463 31.18 133.47 30.9435C133.473 30.7443 133.424 30.5479 133.327 30.3733C133.23 30.1988 133.089 30.0521 132.918 29.9476C132.345 29.6364 131.719 29.4348 131.071 29.3534L129.685 29.0778C127.008 28.5599 125.015 27.7444 123.707 26.6312C122.399 25.5157 121.887 23.9355 121.887 21.8607C121.887 20.732 121.99 19.6929 122.486 18.7766C122.98 17.8581 123.692 17.073 124.561 16.4893C125.541 15.8349 126.627 15.351 127.771 15.0585C129.136 14.7497 130.535 14.618 131.934 14.6667C133.462 14.7244 134.986 14.8729 136.496 15.1116C137.308 15.2297 138.098 15.4669 138.839 15.8154C139.518 16.1092 140.118 16.5559 140.593 17.1201C141.026 17.6597 141.254 18.3328 141.239 19.0223C141.256 19.6477 141.121 20.2681 140.847 20.8315C140.6 21.3131 140.259 21.7409 139.843 22.0897C139.492 21.8907 139.121 21.7293 138.735 21.6084C138.242 21.4424 137.704 21.2897 137.122 21.1502C136.536 21.0141 134.836 20.6456 134.237 20.5527C133.694 20.4673 133.146 20.4218 132.597 20.4166C131.802 20.38 131.007 20.4926 130.254 20.7485C130.017 20.8155 129.808 20.9561 129.658 21.1498C129.508 21.3435 129.425 21.5799 129.421 21.8242C129.42 21.9895 129.463 22.1522 129.544 22.2968C129.624 22.4415 129.741 22.5633 129.883 22.6508C130.428 22.9488 131.021 23.1499 131.636 23.245L133.069 23.577C136.023 24.2409 138.123 25.1649 139.368 26.349C139.983 26.9342 140.467 27.642 140.787 28.4259C141.107 29.2097 141.257 30.0519 141.225 30.8971Z" fill="white"/>
<path d="M159.818 38.2967C159.137 38.3004 158.457 38.246 157.786 38.1341C157.206 38.0364 156.635 37.8909 156.079 37.6992V42.7884C155.599 42.906 155.113 42.998 154.623 43.0639C153.943 43.1574 153.258 43.2029 152.571 43.2C151.032 43.2 149.924 42.9477 149.248 42.4431C148.572 41.9385 148.237 40.9702 148.244 39.5383V20.2239C148.217 19.5002 148.402 18.7843 148.776 18.1624C149.151 17.591 149.646 17.1073 150.229 16.7448C151.368 16.0572 152.611 15.554 153.91 15.2543C155.553 14.8564 157.24 14.6646 158.931 14.6833C160.648 14.6655 162.358 14.897 164.008 15.3704C165.466 15.7852 166.819 16.5026 167.977 17.4752C169.113 18.4592 169.993 19.7005 170.541 21.0937C171.733 24.4641 171.742 28.1355 170.565 31.5111C170.046 32.8943 169.23 34.1491 168.173 35.1883C167.117 36.2276 165.845 37.0266 164.446 37.5299C162.963 38.0612 161.395 38.321 159.818 38.2967ZM158.616 32.1585C160.156 32.1585 161.334 31.6738 162.15 30.6945C162.967 29.7151 163.372 28.2677 163.372 26.3456C163.372 24.4234 162.994 22.9727 162.241 22.0863C161.488 21.1999 160.373 20.7584 158.894 20.7584C158.348 20.7538 157.804 20.823 157.277 20.9642C156.846 21.0794 156.428 21.2408 156.032 21.4456V31.5178C156.416 31.7096 156.819 31.8631 157.234 31.9759C157.683 32.1055 158.148 32.1714 158.616 32.1718V32.1585Z" fill="white"/>
<path d="M177.506 38.2968C175.967 38.2968 174.859 38.0445 174.183 37.5399C173.513 37.0353 173.179 36.0692 173.179 34.6318V10.1519C173.658 10.031 174.144 9.93895 174.634 9.87631C175.314 9.77995 176 9.73335 176.686 9.73688C178.226 9.73688 179.334 9.98918 180.01 10.4938C180.679 10.9984 181.014 11.9678 181.014 13.4019V37.8752C180.534 37.9927 180.048 38.0836 179.558 38.1474C178.879 38.2471 178.193 38.297 177.506 38.2968Z" fill="white"/>
<path d="M193.023 14.6833C194.559 14.6675 196.092 14.8369 197.588 15.1879C198.838 15.4748 200.023 15.9941 201.079 16.7183C202.034 17.3877 202.804 18.2851 203.318 19.3276C203.865 20.4951 204.133 21.772 204.101 23.059V33.3171C204.133 34.026 203.894 34.7207 203.432 35.2625C202.973 35.777 202.436 36.2182 201.842 36.5704C199.834 37.7589 197.018 38.3532 193.394 38.3532C191.912 38.3693 190.433 38.2155 188.986 37.895C187.79 37.6387 186.649 37.1746 185.616 36.524C184.705 35.9459 183.958 35.1459 183.447 34.2001C182.921 33.1811 182.659 32.0482 182.684 30.9036C182.684 28.7989 183.314 27.1811 184.575 26.0501C185.836 24.9192 187.79 24.2176 190.439 23.9454L196.487 23.3047V22.9727C196.508 22.575 196.406 22.1803 196.196 21.8411C195.986 21.5019 195.676 21.2343 195.309 21.0738C194.525 20.6909 193.394 20.5006 191.915 20.5028C190.775 20.5019 189.638 20.6243 188.524 20.868C187.495 21.0852 186.487 21.3918 185.512 21.7842C185.074 21.4558 184.728 21.0215 184.508 20.5227C184.234 19.9748 184.092 19.3714 184.093 18.7599C184.057 18.0799 184.261 17.4087 184.669 16.861C185.153 16.3196 185.763 15.9037 186.446 15.6493C187.468 15.2832 188.529 15.037 189.609 14.9156C190.741 14.7677 191.881 14.6901 193.023 14.6833ZM193.394 32.6764C193.974 32.6711 194.553 32.6178 195.124 32.517C195.616 32.4549 196.093 32.3077 196.533 32.0821V28.4304L193.21 28.7026C192.47 28.7324 191.745 28.9204 191.085 29.2537C190.828 29.38 190.614 29.5766 190.467 29.8202C190.319 30.0639 190.246 30.3442 190.255 30.6281C190.247 30.9144 190.308 31.1985 190.433 31.4569C190.557 31.7154 190.742 31.941 190.971 32.1153C191.446 32.4916 192.254 32.6786 193.394 32.6764Z" fill="white"/>
<path d="M219.47 20.8183C218.724 20.815 217.982 20.9385 217.278 21.1834C216.605 21.4168 215.991 21.7917 215.477 22.2823C214.953 22.7991 214.538 23.4141 214.255 24.0916C213.933 24.8843 213.776 25.7335 213.794 26.588C213.794 28.4803 214.332 29.8845 215.41 30.8008C216.533 31.7331 217.963 32.2214 219.426 32.1719C220.254 32.1889 221.08 32.0769 221.873 31.8399C222.502 31.6415 223.118 31.4042 223.717 31.1295C224.244 31.4955 224.691 31.9629 225.033 32.5038C225.34 33.0484 225.492 33.666 225.471 34.2899C225.471 35.5115 224.864 36.4887 223.65 37.2212C222.436 37.9538 220.705 38.3123 218.456 38.2968C216.68 38.3209 214.913 38.0654 213.218 37.5399C211.748 37.0874 210.393 36.3265 209.245 35.309C208.137 34.2978 207.278 33.0487 206.732 31.6573C206.117 30.0417 205.819 28.3244 205.855 26.598C205.817 24.7928 206.159 22.9996 206.859 21.3328C207.467 19.9111 208.39 18.6436 209.56 17.6247C210.714 16.6388 212.056 15.8916 213.506 15.427C215.034 14.9329 216.631 14.6851 218.238 14.6933C220.454 14.6933 222.162 15.0906 223.362 15.8851C224.563 16.6796 225.163 17.7021 225.163 18.9526C225.165 19.5198 225.022 20.0782 224.748 20.5759C224.489 21.0546 224.162 21.494 223.777 21.8806C223.163 21.6041 222.532 21.3679 221.886 21.1735C221.104 20.9336 220.289 20.8138 219.47 20.8183Z" fill="white"/>
<path d="M233.182 29.5193C233.363 30.0339 233.649 30.506 234.022 30.9058C234.395 31.3057 234.848 31.6248 235.351 31.8432C236.43 32.2981 237.593 32.5243 238.765 32.5071C240.009 32.5125 241.247 32.3505 242.447 32.0258C243.432 31.7804 244.379 31.4029 245.262 30.9037C245.772 31.2283 246.198 31.6673 246.507 32.1851C246.838 32.7069 247.015 33.3111 247.015 33.928C247.033 34.6381 246.805 35.3329 246.369 35.8966C245.879 36.4903 245.254 36.9602 244.545 37.2677C243.658 37.6655 242.718 37.936 241.754 38.0711C240.577 38.2453 239.389 38.3297 238.199 38.3233C236.485 38.3389 234.779 38.0834 233.146 37.5664C231.654 37.099 230.278 36.3266 229.106 35.299C227.937 34.249 227.021 32.9508 226.428 31.5012C225.749 29.797 225.419 27.9754 225.458 26.1431C225.415 24.3601 225.757 22.5886 226.462 20.9477C227.061 19.5782 227.959 18.358 229.092 17.3757C230.178 16.4474 231.442 15.7462 232.808 15.3141C234.18 14.8741 235.613 14.6501 237.055 14.6501C238.572 14.6316 240.08 14.88 241.51 15.3838C242.781 15.8265 243.957 16.5046 244.974 17.3823C245.939 18.2284 246.704 19.2759 247.213 20.4498C247.748 21.6822 248.016 23.0122 247.999 24.3538C247.999 25.3929 247.705 26.1863 247.122 26.7341C246.438 27.3302 245.582 27.6983 244.676 27.7864L233.182 29.5193ZM237.105 20.3136C236.028 20.2803 234.978 20.6581 234.173 21.3693C233.345 22.1566 232.842 23.222 232.764 24.3571L240.613 23.0757C240.576 22.7489 240.482 22.431 240.335 22.1362C240.172 21.8042 239.954 21.5022 239.689 21.2432C239.386 20.9509 239.024 20.7248 238.628 20.5792C238.141 20.3981 237.625 20.3081 237.105 20.3136Z" fill="white"/>
</svg>
