<svg xmlns="http://www.w3.org/2000/svg" width="40.554" height="23.815" viewBox="0 0 40.554 23.815">
  <g id="seta-direita-reta" transform="translate(-8.295 -24.095)">
    <path id="Caminho_115" data-name="Caminho 115" d="M39.814,36.085,27.153,26.009a2.03,2.03,0,0,0-3.271,1.57v3.37a1.893,1.893,0,0,1-1.8,2.028H1.963A1.893,1.893,0,0,0,0,34.874v5.3a1.99,1.99,0,0,0,1.963,1.963H22.082a1.807,1.807,0,0,1,1.8,1.93v3.37a2.008,2.008,0,0,0,3.239,1.538L39.748,39.16A1.916,1.916,0,0,0,39.814,36.085Z" transform="translate(8.295 -1.49)" fill="#fff"/>
  </g>
</svg>
