<svg width="23" height="23" viewBox="0 0 23 23" fill="none" xmlns="http://www.w3.org/2000/svg">
<path d="M21.5983 9.13905L20.019 8.87114C19.8545 8.34002 19.643 7.8277 19.3845 7.33888L20.3152 6.03692C20.71 5.4823 20.6489 4.72557 20.1647 4.24615L18.7641 2.84549C18.5009 2.58228 18.1531 2.43657 17.7817 2.43657C17.4903 2.43657 17.213 2.52587 16.978 2.69508L15.6714 3.62572C15.1637 3.35781 14.6326 3.1369 14.0827 2.97239L13.8195 1.41193C13.7067 0.739797 13.1285 0.250977 12.447 0.250977H10.4682C9.78671 0.250977 9.20858 0.739797 9.09578 1.41193L8.82316 3.00999C8.29674 3.1745 7.78442 3.39071 7.2956 3.65392L6.00305 2.72328C5.76804 2.55407 5.48602 2.46477 5.19461 2.46477C4.82329 2.46477 4.47078 2.61048 4.21227 2.87369L2.80691 4.27435C2.32749 4.75377 2.26169 5.5105 2.6565 6.06512L3.59654 7.38588C3.33803 7.8794 3.13122 8.39172 2.97142 8.92284L1.41095 9.18605C0.738821 9.29886 0.25 9.87698 0.25 10.5585V12.5373C0.25 13.2188 0.738821 13.797 1.41095 13.9098L3.00902 14.1824C3.17352 14.7088 3.38973 15.2211 3.65295 15.7099L2.72701 16.9978C2.33219 17.5524 2.39329 18.3091 2.87741 18.7886L4.27807 20.1892C4.54128 20.4524 4.8891 20.5981 5.26041 20.5981C5.55183 20.5981 5.82914 20.5088 6.06415 20.3396L7.3849 19.3996C7.85962 19.6487 8.35785 19.8508 8.87017 20.0106L9.13338 21.5899C9.24618 22.262 9.82431 22.7508 10.5058 22.7508H12.4893C13.1708 22.7508 13.749 22.262 13.8618 21.5899L14.1297 20.0106C14.6608 19.8461 15.1731 19.6346 15.662 19.3761L16.9639 20.3067C17.1989 20.4759 17.4809 20.5652 17.7723 20.5652C18.1437 20.5652 18.4915 20.4195 18.7547 20.1563L20.1553 18.7557C20.6348 18.2762 20.7006 17.5195 20.3058 16.9649L19.3751 15.6582C19.6336 15.1647 19.8498 14.6524 20.0096 14.126L21.5889 13.8628C22.261 13.7499 22.7499 13.1718 22.7499 12.4903V10.5115C22.7593 9.82998 22.2704 9.25186 21.5983 9.13905ZM21.4902 12.4903C21.4902 12.5514 21.4479 12.6031 21.3868 12.6125L19.4127 12.9415C19.1636 12.9838 18.9662 13.1671 18.9051 13.4068C18.7265 14.0978 18.4539 14.7605 18.0873 15.3762C17.9604 15.5924 17.9698 15.8603 18.1155 16.0671L19.2764 17.7028C19.3093 17.7498 19.3046 17.8203 19.2623 17.8626L17.8617 19.2633C17.8287 19.2962 17.7958 19.3009 17.7723 19.3009C17.7441 19.3009 17.7206 19.2915 17.7018 19.2774L16.0709 18.1164C15.8688 17.9707 15.5962 17.9613 15.3799 18.0882C14.7642 18.4548 14.1015 18.7275 13.4106 18.9061C13.1662 18.9672 12.9828 19.1693 12.9452 19.4137L12.6115 21.3878C12.6021 21.4489 12.5504 21.4912 12.4893 21.4912H10.5105C10.4494 21.4912 10.3977 21.4489 10.3883 21.3878L10.0593 19.4137C10.017 19.1646 9.83371 18.9672 9.594 18.9061C8.92187 18.7322 8.27324 18.4642 7.66692 18.1164C7.56821 18.06 7.45541 18.0318 7.3473 18.0318C7.2204 18.0318 7.08879 18.0694 6.98069 18.1493L5.33562 19.3197C5.31212 19.3338 5.28861 19.3432 5.26511 19.3432C5.24631 19.3432 5.20871 19.3385 5.17581 19.3056L3.77515 17.9049C3.73285 17.8626 3.72815 17.7968 3.76105 17.7451L4.9173 16.1235C5.063 15.9167 5.07241 15.6441 4.9455 15.4279C4.57888 14.8169 4.29687 14.1542 4.11826 13.4632C4.05246 13.2235 3.85505 13.0402 3.61064 12.9979L1.62246 12.6595C1.56136 12.6501 1.51905 12.5984 1.51905 12.5373V10.5585C1.51905 10.4974 1.56136 10.4457 1.62246 10.4363L3.58244 10.1073C3.83155 10.065 4.03366 9.88168 4.09476 9.63727C4.26867 8.94634 4.53658 8.27892 4.8985 7.66319C5.0254 7.44698 5.0113 7.17907 4.8656 6.97696L3.69525 5.33189C3.66235 5.28489 3.66705 5.21439 3.70935 5.17208L5.11001 3.77143C5.14291 3.73852 5.17581 3.73382 5.19931 3.73382C5.22751 3.73382 5.25101 3.74322 5.26981 3.75732L6.89138 4.91357C7.09819 5.05928 7.3708 5.06868 7.58701 4.94178C8.19804 4.57516 8.86077 4.29315 9.5517 4.11454C9.79141 4.04874 9.97471 3.85133 10.017 3.60692L10.3554 1.61873C10.3648 1.55763 10.4165 1.51533 10.4776 1.51533H12.4564C12.5175 1.51533 12.5692 1.55763 12.5786 1.61873L12.9076 3.57872C12.9499 3.82783 13.1332 4.02994 13.3777 4.09104C14.0874 4.26965 14.7642 4.54696 15.394 4.91827C15.6103 5.04518 15.8782 5.03578 16.085 4.89007L17.7065 3.72442C17.73 3.71032 17.7535 3.70092 17.777 3.70092C17.7958 3.70092 17.8334 3.70562 17.8664 3.73852L19.267 5.13918C19.3093 5.18149 19.314 5.24729 19.2811 5.29899L18.1202 6.92996C17.9745 7.13207 17.9651 7.40468 18.092 7.62089C18.4586 8.23661 18.7312 8.89934 18.9098 9.59027C18.9709 9.83468 19.173 10.018 19.4174 10.0556L21.3915 10.3893C21.4526 10.3987 21.4949 10.4504 21.4949 10.5115V12.4903H21.4902Z" fill="#5A5A66"/>
<path d="M11.5023 6.64233C8.82316 6.64233 6.64697 8.81853 6.64697 11.4976C6.64697 14.1768 8.82316 16.3529 11.5023 16.3529C14.1814 16.3529 16.3576 14.1768 16.3576 11.4976C16.3576 8.81853 14.1814 6.64233 11.5023 6.64233ZM11.5023 15.0839C9.52349 15.0839 7.91603 13.4764 7.91603 11.4976C7.91603 9.51886 9.52349 7.91139 11.5023 7.91139C13.4811 7.91139 15.0885 9.51886 15.0885 11.4976C15.0885 13.4764 13.4811 15.0839 11.5023 15.0839Z" fill="#5A5A66"/>
</svg>
