<svg xmlns="http://www.w3.org/2000/svg" width="35.931" height="29.194" viewBox="0 0 35.931 29.194">
  <g id="twitter" transform="translate(-258.035 311.597)">
    <g id="Grupo_85" data-name="Grupo 85" transform="translate(258.035 -359.597)">
      <path id="Caminho_118" data-name="Caminho 118" d="M35.931,51.456a15.358,15.358,0,0,1-4.244,1.163,7.325,7.325,0,0,0,3.24-4.071,14.721,14.721,0,0,1-4.671,1.783,7.366,7.366,0,0,0-12.742,5.037,7.585,7.585,0,0,0,.171,1.68A20.85,20.85,0,0,1,2.5,49.343a7.368,7.368,0,0,0,2.264,9.845,7.274,7.274,0,0,1-3.328-.907v.081a7.4,7.4,0,0,0,5.9,7.238,7.352,7.352,0,0,1-1.931.243,6.513,6.513,0,0,1-1.395-.126A7.436,7.436,0,0,0,10.9,70.847a14.8,14.8,0,0,1-9.133,3.142A13.8,13.8,0,0,1,0,73.888a20.738,20.738,0,0,0,11.3,3.306c13.555,0,20.966-11.228,20.966-20.961,0-.326-.011-.64-.027-.952A14.7,14.7,0,0,0,35.931,51.456Z" fill="#383838"/>
    </g>
  </g>
</svg>
