<svg xmlns="http://www.w3.org/2000/svg" width="28.837" height="30.945" viewBox="0 0 28.837 30.945">
  <g id="user" transform="translate(-17.44)">
    <g id="Grupo_73" data-name="Grupo 73" transform="translate(17.44 17.43)">
      <g id="Grupo_72" data-name="Grupo 72" transform="translate(0)">
        <path id="Caminho_44" data-name="Caminho 44" d="M31.858,288.389c-9.3,0-14.418,4.4-14.418,12.385a1.129,1.129,0,0,0,1.129,1.129H45.147a1.129,1.129,0,0,0,1.129-1.129C46.277,292.788,41.156,288.389,31.858,288.389ZM19.74,299.645c.444-5.972,4.516-9,12.118-9s11.674,3.026,12.119,9Z" transform="translate(-17.44 -288.389)" fill="#707070"/>
      </g>
    </g>
    <g id="Grupo_75" data-name="Grupo 75" transform="translate(24.367)">
      <g id="Grupo_74" data-name="Grupo 74" transform="translate(0)">
        <path id="Caminho_45" data-name="Caminho 45" d="M139.54,0a7.4,7.4,0,0,0-7.491,7.642c0,4.484,3.361,8.131,7.491,8.131s7.491-3.647,7.491-8.131A7.4,7.4,0,0,0,139.54,0Zm0,13.515c-2.886,0-5.233-2.634-5.233-5.873a5.135,5.135,0,0,1,5.233-5.383,5.193,5.193,0,0,1,5.233,5.383C144.773,10.88,142.426,13.515,139.54,13.515Z" transform="translate(-132.049)" fill="#707070"/>
      </g>
    </g>
  </g>
</svg>
